<svg width="25" height="25" viewBox="0 0 25 25" fill="none" xmlns="http://www.w3.org/2000/svg">
<mask id="mask0_135_12" style="mask-type:alpha" maskUnits="userSpaceOnUse" x="0" y="0" width="25" height="25">
<rect x="0.5" y="0.5" width="24" height="24" fill="#D9D9D9"/>
</mask>
<g mask="url(#mask0_135_12)">
<path d="M5.5 19.5V5.5V9.975V9.5V19.5ZM7.5 13.5H13.025C13.0583 13.1333 13.1417 12.7833 13.275 12.45C13.4083 12.1167 13.575 11.8 13.775 11.5H7.5V13.5ZM7.5 17.5H11.425C11.7083 17.1667 12.0333 16.8958 12.4 16.6875C12.7667 16.4792 13.15 16.3083 13.55 16.175C13.4833 16.075 13.425 15.9667 13.375 15.85C13.325 15.7333 13.2833 15.6167 13.25 15.5H7.5V17.5ZM7.5 9.5H17.5V7.5H7.5V9.5ZM5.5 21.5C4.95 21.5 4.47917 21.3042 4.0875 20.9125C3.69583 20.5208 3.5 20.05 3.5 19.5V5.5C3.5 4.95 3.69583 4.47917 4.0875 4.0875C4.47917 3.69583 4.95 3.5 5.5 3.5H19.5C20.05 3.5 20.5208 3.69583 20.9125 4.0875C21.3042 4.47917 21.5 4.95 21.5 5.5V11.95C21.2667 11.5167 20.9833 11.1333 20.65 10.8C20.3167 10.4667 19.9333 10.1917 19.5 9.975V5.5H5.5V19.5H10.55C10.5333 19.6 10.5208 19.7 10.5125 19.8C10.5042 19.9 10.5 20 10.5 20.1V21.5H5.5ZM17.5 16.5C16.8 16.5 16.2083 16.2583 15.725 15.775C15.2417 15.2917 15 14.7 15 14C15 13.3 15.2417 12.7083 15.725 12.225C16.2083 11.7417 16.8 11.5 17.5 11.5C18.2 11.5 18.7917 11.7417 19.275 12.225C19.7583 12.7083 20 13.3 20 14C20 14.7 19.7583 15.2917 19.275 15.775C18.7917 16.2583 18.2 16.5 17.5 16.5ZM12.5 21.5V20.1C12.5 19.7 12.6042 19.3292 12.8125 18.9875C13.0208 18.6458 13.3167 18.4 13.7 18.25C14.3 18 14.9208 17.8125 15.5625 17.6875C16.2042 17.5625 16.85 17.5 17.5 17.5C18.15 17.5 18.7958 17.5625 19.4375 17.6875C20.0792 17.8125 20.7 18 21.3 18.25C21.6833 18.4 21.9792 18.6458 22.1875 18.9875C22.3958 19.3292 22.5 19.7 22.5 20.1V21.5H12.5Z" fill="#1C1B1F"/>
</g>
</svg>
