<svg width="25" height="25" viewBox="0 0 25 25" fill="none" xmlns="http://www.w3.org/2000/svg">
<mask id="mask0_135_22" style="mask-type:alpha" maskUnits="userSpaceOnUse" x="0" y="0" width="25" height="25">
<rect x="0.5" y="0.5" width="24" height="24" fill="#D9D9D9"/>
</mask>
<g mask="url(#mask0_135_22)">
<path d="M17.5 20.5C17.2167 20.5 16.9792 20.4042 16.7875 20.2125C16.5958 20.0208 16.5 19.7833 16.5 19.5V14.5C16.5 14.2167 16.5958 13.9792 16.7875 13.7875C16.9792 13.5958 17.2167 13.5 17.5 13.5H19.5C19.7833 13.5 20.0208 13.5958 20.2125 13.7875C20.4042 13.9792 20.5 14.2167 20.5 14.5V19.5C20.5 19.7833 20.4042 20.0208 20.2125 20.2125C20.0208 20.4042 19.7833 20.5 19.5 20.5H17.5ZM11.5 20.5C11.2167 20.5 10.9792 20.4042 10.7875 20.2125C10.5958 20.0208 10.5 19.7833 10.5 19.5V5.5C10.5 5.21667 10.5958 4.97917 10.7875 4.7875C10.9792 4.59583 11.2167 4.5 11.5 4.5H13.5C13.7833 4.5 14.0208 4.59583 14.2125 4.7875C14.4042 4.97917 14.5 5.21667 14.5 5.5V19.5C14.5 19.7833 14.4042 20.0208 14.2125 20.2125C14.0208 20.4042 13.7833 20.5 13.5 20.5H11.5ZM5.5 20.5C5.21667 20.5 4.97917 20.4042 4.7875 20.2125C4.59583 20.0208 4.5 19.7833 4.5 19.5V10.5C4.5 10.2167 4.59583 9.97917 4.7875 9.7875C4.97917 9.59583 5.21667 9.5 5.5 9.5H7.5C7.78333 9.5 8.02083 9.59583 8.2125 9.7875C8.40417 9.97917 8.5 10.2167 8.5 10.5V19.5C8.5 19.7833 8.40417 20.0208 8.2125 20.2125C8.02083 20.4042 7.78333 20.5 7.5 20.5H5.5Z" fill="#1C1B1F"/>
</g>
</svg>
