<svg width="25" height="25" viewBox="0 0 25 25" fill="none" xmlns="http://www.w3.org/2000/svg">
<mask id="mask0_135_2" style="mask-type:alpha" maskUnits="userSpaceOnUse" x="0" y="0" width="25" height="25">
<rect x="0.5" y="0.5" width="24" height="24" fill="#D9D9D9"/>
</mask>
<g mask="url(#mask0_135_2)">
<path d="M11.5 10.5C12.05 10.5 12.5208 10.3042 12.9125 9.9125C13.3042 9.52083 13.5 9.05 13.5 8.5C13.5 7.95 13.3042 7.47917 12.9125 7.0875C12.5208 6.69583 12.05 6.5 11.5 6.5C10.95 6.5 10.4792 6.69583 10.0875 7.0875C9.69583 7.47917 9.5 7.95 9.5 8.5C9.5 9.05 9.69583 9.52083 10.0875 9.9125C10.4792 10.3042 10.95 10.5 11.5 10.5ZM11.5 14.5C12.25 14.5 12.9542 14.3417 13.6125 14.025C14.2708 13.7083 14.8417 13.2583 15.325 12.675C14.7417 12.2917 14.1292 12 13.4875 11.8C12.8458 11.6 12.1833 11.5 11.5 11.5C10.8167 11.5 10.1542 11.6 9.5125 11.8C8.87083 12 8.25833 12.2917 7.675 12.675C8.15833 13.2583 8.72917 13.7083 9.3875 14.025C10.0458 14.3417 10.75 14.5 11.5 14.5ZM11.5 18.5C9.26667 18.5 7.375 17.725 5.825 16.175C4.275 14.625 3.5 12.7333 3.5 10.5C3.5 8.26667 4.275 6.375 5.825 4.825C7.375 3.275 9.26667 2.5 11.5 2.5C13.7333 2.5 15.625 3.275 17.175 4.825C18.725 6.375 19.5 8.26667 19.5 10.5C19.5 11.4333 19.35 12.3125 19.05 13.1375C18.75 13.9625 18.3333 14.7167 17.8 15.4L21.8 19.4C21.9833 19.5833 22.075 19.8167 22.075 20.1C22.075 20.3833 21.9833 20.6167 21.8 20.8C21.6167 20.9833 21.3833 21.075 21.1 21.075C20.8167 21.075 20.5833 20.9833 20.4 20.8L16.4 16.8C15.7167 17.3333 14.9625 17.75 14.1375 18.05C13.3125 18.35 12.4333 18.5 11.5 18.5ZM11.5 16.5C13.1667 16.5 14.5833 15.9167 15.75 14.75C16.9167 13.5833 17.5 12.1667 17.5 10.5C17.5 8.83333 16.9167 7.41667 15.75 6.25C14.5833 5.08333 13.1667 4.5 11.5 4.5C9.83333 4.5 8.41667 5.08333 7.25 6.25C6.08333 7.41667 5.5 8.83333 5.5 10.5C5.5 12.1667 6.08333 13.5833 7.25 14.75C8.41667 15.9167 9.83333 16.5 11.5 16.5Z" fill="#1C1B1F"/>
</g>
</svg>
