<svg width="48" height="49" viewBox="0 0 48 49" fill="none" xmlns="http://www.w3.org/2000/svg">
<mask id="mask0_101_367" style="mask-type:alpha" maskUnits="userSpaceOnUse" x="0" y="0" width="48" height="49">
<rect y="0.5" width="48" height="48" fill="#D9D9D9"/>
</mask>
<g mask="url(#mask0_101_367)">
<path d="M21.5045 19.5C22.4682 19.5 23.2917 19.1568 23.975 18.4705C24.6583 17.7842 25 16.9592 25 15.9955C25 15.0318 24.6568 14.2083 23.9705 13.525C23.2842 12.8417 22.4592 12.5 21.4955 12.5C20.5318 12.5 19.7083 12.8432 19.025 13.5295C18.3417 14.2158 18 15.0408 18 16.0045C18 16.9682 18.3432 17.7917 19.0295 18.475C19.7158 19.1583 20.5408 19.5 21.5045 19.5ZM21.525 27.5C22.8083 27.5 24.0535 27.2353 25.2605 26.706C26.4675 26.177 27.514 25.425 28.4 24.45C27.3333 23.7833 26.2167 23.2917 25.05 22.975C23.8833 22.6583 22.7 22.5 21.5 22.5C20.3 22.5 19.1167 22.6583 17.95 22.975C16.7833 23.2917 15.6667 23.7833 14.6 24.45C15.5333 25.4167 16.6 26.1667 17.8 26.7C19 27.2333 20.2417 27.5 21.525 27.5ZM21.503 35.5C17.201 35.5 13.5417 33.9917 10.525 30.975C7.50833 27.9583 6 24.3 6 20C6 15.7 7.50833 12.0417 10.525 9.025C13.5417 6.00833 17.2 4.5 21.5 4.5C25.8 4.5 29.4583 6.00833 32.475 9.025C35.4917 12.0417 37 15.701 37 20.003C37 21.801 36.675 23.5583 36.025 25.275C35.375 26.9917 34.5167 28.5167 33.45 29.85L42.95 39.35C43.25 39.65 43.4 40 43.4 40.4C43.4 40.8 43.25 41.15 42.95 41.45C42.65 41.75 42.3 41.9 41.9 41.9C41.5 41.9 41.15 41.75 40.85 41.45L31.35 31.95C30.0167 33.0167 28.4917 33.875 26.775 34.525C25.0583 35.175 23.301 35.5 21.503 35.5ZM21.525 32.5C24.975 32.5 27.9167 31.275 30.35 28.825C32.7833 26.375 34 23.425 34 19.975C34 16.525 32.7847 13.5833 30.354 11.15C27.9237 8.71667 24.9723 7.5 21.5 7.5C18.0667 7.5 15.125 8.71533 12.675 11.146C10.225 13.5763 9 16.5277 9 20C9 23.4333 10.225 26.375 12.675 28.825C15.125 31.275 18.075 32.5 21.525 32.5Z" fill="#24418E"/>
</g>
</svg>
