<svg width="56" height="57" viewBox="0 0 56 57" fill="none" xmlns="http://www.w3.org/2000/svg">
<mask id="mask0_135_8" style="mask-type:alpha" maskUnits="userSpaceOnUse" x="0" y="0" width="56" height="57">
<rect y="0.5" width="56" height="56" fill="#D9D9D9"/>
</mask>
<g mask="url(#mask0_135_8)">
<path d="M10.5 51.8332C9.56667 51.8332 8.75 51.4832 8.05 50.7832C7.35 50.0832 7 49.2665 7 48.3332V36.7832L14.875 28.0915L17.3833 30.5999L10.5 38.1249H45.5L39.025 30.7749L41.5333 28.2665L49 36.7832V48.3332C49 49.2665 48.65 50.0832 47.95 50.7832C47.25 51.4832 46.4333 51.8332 45.5 51.8332H10.5ZM10.5 48.3332H45.5V41.6249H10.5V48.3332ZM25.7833 34.0415L16.5083 24.7665C15.7694 24.0276 15.4389 23.2012 15.5167 22.2873C15.5944 21.3735 15.9833 20.5665 16.6833 19.8665L29.05 7.49985C29.7084 6.85585 30.5245 6.51985 31.4982 6.49185C32.4716 6.46385 33.3083 6.79985 34.0083 7.49985L43.2833 16.7749C43.9444 17.436 44.2847 18.2235 44.3042 19.1374C44.3236 20.0512 43.9444 20.8971 43.1667 21.6749L30.8 34.0415C30.1389 34.7026 29.3222 35.0526 28.35 35.0915C27.3778 35.1304 26.5222 34.7804 25.7833 34.0415ZM40.3083 19.0499L31.5583 10.2999L19.425 22.4332L28.175 31.1832L40.3083 19.0499Z" fill="white"/>
</g>
</svg>
