<svg width="56" height="57" viewBox="0 0 56 57" fill="none" xmlns="http://www.w3.org/2000/svg">
<mask id="mask0_135_38" style="mask-type:alpha" maskUnits="userSpaceOnUse" x="0" y="0" width="56" height="57">
<rect y="0.5" width="56" height="56" fill="#D9D9D9"/>
</mask>
<g mask="url(#mask0_135_38)">
<path d="M23.3333 28.2085C20.7666 28.2085 18.6666 27.3918 17.0333 25.7585C15.4 24.1252 14.5833 22.0252 14.5833 19.4585C14.5833 16.8918 15.4 14.7918 17.0333 13.1585C18.6666 11.5252 20.7666 10.7085 23.3333 10.7085C25.9 10.7085 28 11.5252 29.6333 13.1585C31.2666 14.7918 32.0833 16.8918 32.0833 19.4585C32.0833 22.0252 31.2666 24.1252 29.6333 25.7585C28 27.3918 25.9 28.2085 23.3333 28.2085ZM4.66663 46.9335V41.4502C4.66663 40.0891 5.0069 38.8641 5.68746 37.7752C6.36801 36.6863 7.34996 35.8502 8.63329 35.2668C11.4333 34.0224 14.0291 33.1279 16.4208 32.5835C18.8125 32.0391 21.1166 31.7668 23.3333 31.7668H24.675C24.4416 32.3113 24.2666 32.846 24.15 33.371C24.0333 33.896 23.9361 34.5279 23.8583 35.2668H23.3333C21.0777 35.2668 18.8708 35.5099 16.7125 35.996C14.5541 36.4821 12.3277 37.2891 10.0333 38.4168C9.41107 38.7279 8.9444 39.1654 8.63329 39.7293C8.32218 40.2932 8.16663 40.8668 8.16663 41.4502V43.4335H23.8583C24.0527 44.1335 24.2861 44.7654 24.5583 45.3293C24.8305 45.8932 25.1611 46.4279 25.55 46.9335H4.66663ZM38.9083 49.5002L38.325 45.6502C37.6638 45.4557 36.993 45.1738 36.3125 44.8043C35.6319 44.4349 35.0583 44.0168 34.5916 43.5502L31.3833 44.2502L29.925 41.8002L32.6666 39.2335C32.5888 38.8835 32.55 38.3974 32.55 37.7752C32.55 37.1529 32.5888 36.6668 32.6666 36.3168L29.925 33.7502L31.3833 31.3002L34.5916 32.0002C35.0583 31.5335 35.6319 31.1154 36.3125 30.746C36.993 30.3766 37.6638 30.0946 38.325 29.9002L38.9083 26.0502H42.0583L42.6416 29.9002C43.3027 30.0946 43.9736 30.3766 44.6541 30.746C45.3347 31.1154 45.9083 31.5335 46.375 32.0002L49.5833 31.3002L51.0416 33.7502L48.3 36.3168C48.3777 36.6668 48.4166 37.1529 48.4166 37.7752C48.4166 38.3974 48.3777 38.8835 48.3 39.2335L51.0416 41.8002L49.5833 44.2502L46.375 43.5502C45.9083 44.0168 45.3347 44.4349 44.6541 44.8043C43.9736 45.1738 43.3027 45.4557 42.6416 45.6502L42.0583 49.5002H38.9083ZM40.4833 42.4418C41.8833 42.4418 43.0111 42.0141 43.8666 41.1585C44.7222 40.3029 45.15 39.1752 45.15 37.7752C45.15 36.3752 44.7222 35.2474 43.8666 34.3918C43.0111 33.5363 41.8833 33.1085 40.4833 33.1085C39.0833 33.1085 37.9555 33.5363 37.1 34.3918C36.2444 35.2474 35.8166 36.3752 35.8166 37.7752C35.8166 39.1752 36.2444 40.3029 37.1 41.1585C37.9555 42.0141 39.0833 42.4418 40.4833 42.4418ZM23.3333 24.7085C24.85 24.7085 26.1041 24.2127 27.0958 23.221C28.0875 22.2293 28.5833 20.9752 28.5833 19.4585C28.5833 17.9418 28.0875 16.6877 27.0958 15.696C26.1041 14.7043 24.85 14.2085 23.3333 14.2085C21.8166 14.2085 20.5625 14.7043 19.5708 15.696C18.5791 16.6877 18.0833 17.9418 18.0833 19.4585C18.0833 20.9752 18.5791 22.2293 19.5708 23.221C20.5625 24.2127 21.8166 24.7085 23.3333 24.7085Z" fill="white"/>
</g>
</svg>
