<svg width="20" height="20" viewBox="0 0 20 20" fill="none" xmlns="http://www.w3.org/2000/svg">
<path d="M11 9H17.95C17.7 7.16667 16.9375 5.6125 15.6625 4.3375C14.3875 3.0625 12.8333 2.3 11 2.05V9ZM9 17.95V2.05C6.98333 2.3 5.3125 3.17917 3.9875 4.6875C2.6625 6.19583 2 7.96667 2 10C2 12.0333 2.6625 13.8042 3.9875 15.3125C5.3125 16.8208 6.98333 17.7 9 17.95ZM11 17.95C12.8333 17.7167 14.3917 16.9583 15.675 15.675C16.9583 14.3917 17.7167 12.8333 17.95 11H11V17.95ZM10 20C8.61667 20 7.31667 19.7375 6.1 19.2125C4.88333 18.6875 3.825 17.975 2.925 17.075C2.025 16.175 1.3125 15.1167 0.7875 13.9C0.2625 12.6833 0 11.3833 0 10C0 8.61667 0.2625 7.31667 0.7875 6.1C1.3125 4.88333 2.025 3.825 2.925 2.925C3.825 2.025 4.88333 1.3125 6.1 0.7875C7.31667 0.2625 8.61667 0 10 0C11.3833 0 12.6792 0.2625 13.8875 0.7875C15.0958 1.3125 16.1542 2.02917 17.0625 2.9375C17.9708 3.84583 18.6875 4.90417 19.2125 6.1125C19.7375 7.32083 20 8.61667 20 10C20 11.3667 19.7375 12.6583 19.2125 13.875C18.6875 15.0917 17.975 16.1542 17.075 17.0625C16.175 17.9708 15.1167 18.6875 13.9 19.2125C12.6833 19.7375 11.3833 20 10 20Z" fill="#1C1B1F"/>
</svg>
