<svg width="24" height="25" viewBox="0 0 24 25" fill="none" xmlns="http://www.w3.org/2000/svg">
<mask id="mask0_135_43" style="mask-type:alpha" maskUnits="userSpaceOnUse" x="0" y="0" width="24" height="25">
<rect y="0.5" width="24" height="24" fill="#D9D9D9"/>
</mask>
<g mask="url(#mask0_135_43)">
<path d="M12 13.5L4 8.5V18.5H12C12 18.85 12.025 19.1875 12.075 19.5125C12.125 19.8375 12.2 20.1667 12.3 20.5H4C3.45 20.5 2.97917 20.3042 2.5875 19.9125C2.19583 19.5208 2 19.05 2 18.5V6.5C2 5.95 2.19583 5.47917 2.5875 5.0875C2.97917 4.69583 3.45 4.5 4 4.5H20C20.55 4.5 21.0208 4.69583 21.4125 5.0875C21.8042 5.47917 22 5.95 22 6.5V12.2C21.7 12.05 21.3792 11.925 21.0375 11.825C20.6958 11.725 20.35 11.65 20 11.6V8.5L12 13.5ZM12 11.5L20 6.5H4L12 11.5ZM19 23.5C17.6167 23.5 16.4375 23.0125 15.4625 22.0375C14.4875 21.0625 14 19.8833 14 18.5C14 17.1167 14.4875 15.9375 15.4625 14.9625C16.4375 13.9875 17.6167 13.5 19 13.5C20.3833 13.5 21.5625 13.9875 22.5375 14.9625C23.5125 15.9375 24 17.1167 24 18.5C24 19.8833 23.5125 21.0625 22.5375 22.0375C21.5625 23.0125 20.3833 23.5 19 23.5ZM16 19H22V18H16V19Z" fill="#1C1B1F"/>
</g>
</svg>
