<svg width="46" height="64" viewBox="0 0 46 64" fill="none" xmlns="http://www.w3.org/2000/svg">
<g clip-path="url(#clip0_89_150)">
<path d="M37.6003 33.1658C37.5704 33.6848 37.5792 34.6776 37.4404 35.647C37.2471 36.9949 37.0081 38.3337 36.618 39.6509C36.2033 41.0492 35.699 42.4006 35.0523 43.6943C34.0032 45.7918 32.6378 47.6441 30.8577 49.1577C29.8244 50.037 28.7033 50.7758 27.4486 51.2732C26.6701 51.5813 25.867 51.8011 25.0411 51.9705C24.1326 52.1561 23.2311 52.1615 22.3279 52.1092C21.372 52.0552 20.4388 51.8209 19.5233 51.5146C18.49 51.1686 17.5534 50.6353 16.6414 50.0479C15.573 49.3595 14.6592 48.482 13.8368 47.5162C12.199 45.5936 10.9619 43.4169 10.129 41.0131C9.58947 39.4581 9.25559 37.8526 8.99552 36.2183C8.81979 35.1137 8.80749 34.0109 8.77937 32.9136C8.74774 31.7099 8.75126 30.4882 8.992 29.2899C9.12907 28.6034 9.18355 27.8971 9.33643 27.2141C9.67031 25.7294 10.1008 24.2824 10.7176 22.8824C11.6226 20.8318 12.7754 18.965 14.2831 17.3343C14.6715 16.9145 15.1091 16.5433 15.5255 16.1523C15.638 16.0459 15.7628 15.9541 15.8717 15.8441C15.9156 15.7991 15.9315 15.7252 15.9596 15.6657C15.884 15.6459 15.8067 15.6045 15.7329 15.6099C14.726 15.7018 13.7208 15.8099 12.7121 15.8874C12.5083 15.9036 12.1322 15.8531 12.1147 15.7721C12.0514 15.4711 12.38 15.4261 12.568 15.3054C13.5258 14.6909 14.4923 14.0891 15.4552 13.4818C15.5431 13.426 15.6345 13.3755 15.71 13.3035C15.7663 13.2494 15.7961 13.1683 15.8383 13.098C15.761 13.0764 15.6819 13.0332 15.6046 13.0332C15.1073 13.0314 14.6082 13.0242 14.1109 13.0458C13.2499 13.0818 12.4995 12.7971 11.8247 12.2692C11.7562 12.2169 11.6824 12.1628 11.6349 12.0944C11.591 12.0295 11.5436 11.9232 11.5682 11.8673C11.5928 11.8133 11.7035 11.7953 11.779 11.7718C11.8089 11.7628 11.8476 11.7718 11.881 11.7808C13.1023 12.1232 14.0811 11.5033 15.0616 10.9231C15.3885 10.7285 15.3832 10.6402 15.0388 10.4168C14.2884 9.92668 13.5222 9.45819 12.7631 8.97888C12.5874 8.86897 12.4064 8.76626 12.2429 8.63832C12.1709 8.58246 12.1375 8.47255 12.0866 8.38786C12.1709 8.34101 12.2552 8.25091 12.3378 8.25272C12.9371 8.27614 13.5363 8.31578 14.1355 8.35362C14.9386 8.40588 15.7434 8.46174 16.5465 8.51039C16.601 8.51399 16.6572 8.46894 16.7117 8.44732C16.673 8.39146 16.6467 8.31939 16.5957 8.28335C16.3427 8.10316 16.072 7.94639 15.8278 7.75359C15.3937 7.41303 14.9491 7.07968 14.5555 6.69227C14.1303 6.27242 13.8526 5.73906 13.763 5.13002C13.7454 5.01109 13.821 4.87775 13.8526 4.75162C13.951 4.80928 14.0758 4.84352 14.1443 4.9264C14.6785 5.59311 15.392 5.8706 16.1986 5.97511C16.5184 6.01655 16.8329 6.12467 17.1545 6.14809C17.5657 6.17873 17.6202 6.11386 17.4796 5.69942C17.3004 5.17146 17.0702 4.66152 16.8575 4.14618C16.6765 3.71012 16.4885 3.27766 16.3058 2.8434C16.2864 2.79475 16.2601 2.74069 16.2636 2.69385C16.2741 2.57672 16.3005 2.4614 16.3198 2.34608C16.4305 2.37491 16.5676 2.3713 16.6467 2.43978C17.2002 2.91007 17.7414 3.39659 18.2897 3.87589C18.7466 4.27411 19.2035 4.67233 19.6674 5.06335C19.7219 5.1102 19.8133 5.112 19.8871 5.13542C19.8765 5.05614 19.8818 4.97325 19.8554 4.89937C19.6762 4.40565 19.4618 3.92454 19.3124 3.42181C19.0734 2.61817 19.0401 1.7965 19.2211 0.973028C19.2439 0.870319 19.2632 0.758601 19.3195 0.675714C19.3933 0.569401 19.504 0.49192 19.5989 0.401824C19.6498 0.518948 19.7096 0.632468 19.7518 0.753195C19.8818 1.12979 19.9591 1.53342 20.1384 1.88119C20.5302 2.63618 21.1224 3.22541 21.7744 3.74796C21.9923 3.92274 22.0942 3.88851 22.175 3.62183C22.2664 3.32271 22.3385 3.01639 22.407 2.71186C22.5897 1.90822 22.7602 1.10096 22.9517 0.300918C22.9781 0.1892 23.0958 0.0991047 23.1732 0C23.2434 0.0900952 23.3506 0.171181 23.377 0.273889C23.4895 0.693733 23.5756 1.12259 23.674 1.54783C23.8532 2.31364 24.0307 3.07945 24.217 3.84346C24.231 3.90112 24.3031 3.94256 24.3488 3.99122C24.405 3.93536 24.4911 3.89031 24.5122 3.82364C24.6475 3.38938 24.767 2.95152 24.8918 2.51546C25.1272 1.69559 25.5824 1.03609 26.2607 0.536967C26.331 0.486514 26.396 0.412636 26.4733 0.392815C26.5647 0.36939 26.6684 0.392815 26.7668 0.396419C26.7562 0.488316 26.7756 0.601836 26.7316 0.670308C26.15 1.59288 26.3292 2.60195 26.4136 3.5948C26.4434 3.94076 26.5735 4.27772 26.6455 4.62188C26.7017 4.89217 26.8212 4.88316 26.9952 4.73C27.5294 4.2633 28.0654 3.79841 28.5978 3.32992C28.8193 3.13531 29.0284 2.92629 29.248 2.72988C29.364 2.62537 29.4782 2.51185 29.6118 2.43978C29.7225 2.38031 29.8613 2.37491 29.9878 2.34608C29.9808 2.47582 30.0037 2.61636 29.9597 2.73169C29.5538 3.79481 29.1373 4.85072 28.7261 5.91204C28.698 5.98592 28.6945 6.07241 28.6787 6.1517C28.7648 6.11746 28.8649 6.10305 28.9352 6.04719C29.5187 5.59131 30.0529 5.06155 30.7663 4.80207C31.2759 4.61648 31.7961 4.53719 32.3338 4.59665C32.4181 4.60566 32.4919 4.70297 32.5728 4.75883C32.5201 4.81829 32.4779 4.90298 32.4129 4.93361C31.3673 5.41652 30.8454 6.35892 30.3867 7.35537C30.262 7.62565 30.1478 7.90134 30.0423 8.17884C29.9281 8.47615 29.9386 8.50859 30.262 8.49237C30.8612 8.46354 31.4587 8.40227 32.0561 8.35542C32.6712 8.30677 33.2862 8.25272 33.9013 8.22028C34.0014 8.21488 34.1069 8.31218 34.2106 8.36083C34.1613 8.44732 34.1315 8.55724 34.0612 8.6185C33.9171 8.74283 33.7572 8.84554 33.5955 8.94645C32.8346 9.42035 32.072 9.88884 31.3111 10.3627C31.2408 10.406 31.1863 10.4781 31.1265 10.5357C31.2127 10.5646 31.3005 10.6168 31.3866 10.6186C32.0561 10.6258 32.7397 10.561 33.3723 10.8258C33.824 11.0132 34.2422 11.2871 34.6622 11.5466C34.7342 11.5916 34.736 11.7556 34.7694 11.8637C34.6604 11.8781 34.5374 11.9322 34.4478 11.898C33.9874 11.7214 33.5551 11.779 33.0947 11.934C32.3391 12.1881 31.6397 12.5503 30.9684 12.9755C30.6398 13.1827 30.6328 13.3305 30.9473 13.5287C31.9103 14.1359 32.875 14.7396 33.8363 15.3486C33.9997 15.4531 34.2721 15.518 34.2018 15.7685C34.1772 15.8531 33.8732 15.9036 33.7027 15.8892C32.7977 15.8171 31.8962 15.7144 30.9912 15.6369C30.7874 15.6189 30.5783 15.6675 30.3709 15.6856C30.5097 15.8315 30.638 15.9865 30.7874 16.1198C31.7943 17.0244 32.7344 17.9938 33.5322 19.102C34.8748 20.9687 35.7974 23.0554 36.5073 25.2411C36.7709 26.0519 36.908 26.9042 37.0977 27.7385C37.4685 29.3692 37.5933 31.0288 37.6003 33.164V33.1658ZM23.1468 42.0312C23.1468 39.1445 23.1468 36.2597 23.1468 33.373C23.1468 32.7748 23.1433 32.7658 22.588 32.7658C18.4848 32.7622 14.3833 32.7622 10.2801 32.7658C9.75817 32.7658 9.74236 32.7892 9.74587 33.346C9.75114 34.3317 9.75114 35.3155 9.95499 36.2885C10.0727 36.8543 10.1483 37.4309 10.2748 37.9949C10.4558 38.7968 10.6087 39.6112 10.8793 40.3825C11.2026 41.3014 11.6033 42.1988 12.0321 43.0727C13.1216 45.2908 14.5485 47.2459 16.4903 48.7667C18.0823 50.0118 19.8677 50.8173 21.8517 51.1308C22.1715 51.1813 22.5019 51.156 22.8287 51.1668C23.0396 51.174 23.1486 51.0731 23.145 50.8515C23.1433 50.711 23.1468 50.5704 23.1468 50.4299C23.1468 47.6315 23.1468 44.8331 23.1468 42.0366V42.0312ZM23.1855 20.9796C23.1855 23.0373 23.1855 25.0951 23.1855 27.1547C23.1855 27.261 23.1855 27.3655 23.1855 27.4718C23.1907 27.7097 23.305 27.8304 23.5422 27.8088C23.6792 27.7962 23.8163 27.7511 23.9499 27.7583C24.4261 27.7889 24.9287 27.7493 25.3697 27.8953C26.3749 28.2304 27.3467 28.1818 28.343 27.8899C29.0811 27.6736 29.8367 27.661 30.573 27.9061C31.4481 28.1962 32.3373 28.2322 33.2036 27.9673C34.0893 27.6971 34.9486 27.652 35.8202 27.9457C36.0504 28.0232 36.1541 27.9583 36.1435 27.7187C36.1383 27.5799 36.1172 27.4376 36.0803 27.3042C35.8343 26.4483 35.5988 25.5906 35.3282 24.7437C34.8186 23.1527 34.0577 21.6859 33.1702 20.2858C32.2863 18.8912 31.2039 17.6803 29.9263 16.6586C28.9089 15.8441 27.793 15.2225 26.5735 14.7666C25.6087 14.4062 24.6018 14.3504 23.616 14.1467C23.37 14.0963 23.2224 14.235 23.196 14.4891C23.1819 14.6278 23.189 14.7702 23.189 14.9107C23.189 16.9343 23.189 18.956 23.189 20.9796H23.1855ZM24.3628 31.063C24.3593 31.0774 24.3558 31.09 24.3523 31.1045C24.1643 31.1153 23.9692 31.099 23.79 31.1441C23.5721 31.1981 23.203 31.2126 23.2505 31.4901C23.2926 31.7459 23.6371 31.618 23.8356 31.5729C24.3576 31.454 24.883 31.5081 25.3574 31.6829C26.3731 32.0541 27.3537 32.0144 28.3641 31.6865C29.0618 31.4594 29.8051 31.4324 30.4887 31.6883C31.3989 32.0306 32.3109 32.0613 33.2001 31.7766C34.1209 31.4829 34.9996 31.463 35.9046 31.7784C36.0768 31.8378 36.2771 31.8252 36.4651 31.8252C36.5126 31.8252 36.5917 31.7513 36.6004 31.7009C36.6092 31.6504 36.5618 31.5657 36.5143 31.5369C36.4124 31.4738 36.2999 31.4252 36.1857 31.3892C35.0945 31.0432 34.0085 30.9999 32.9137 31.3982C32.2846 31.627 31.6362 31.5802 30.9948 31.4126C30.4166 31.2612 29.8455 31.027 29.2357 31.1189C28.7648 31.1891 28.2973 31.3045 27.8334 31.4144C27.1903 31.5675 26.5594 31.5874 25.9127 31.3946C25.4084 31.2432 24.8812 31.1693 24.3646 31.0612L24.3628 31.063ZM24.3189 32.0036C24.0184 32.0829 23.6898 32.1604 23.3682 32.2595C23.3067 32.2793 23.2171 32.4144 23.2329 32.4451C23.2751 32.5243 23.3629 32.5838 23.4438 32.6343C23.4824 32.6577 23.5439 32.6415 23.5949 32.6415C24.7565 32.6487 25.918 32.6595 27.0796 32.6613C28.2446 32.6649 29.4079 32.6595 30.573 32.6577C32.4392 32.6577 34.3054 32.6577 36.1717 32.6541C36.2402 32.6541 36.314 32.6613 36.3755 32.6379C36.4265 32.6162 36.4616 32.555 36.5055 32.5117C36.4704 32.4775 36.4405 32.4234 36.4001 32.4126C36.2015 32.3586 35.9959 32.3297 35.8009 32.2649C34.9591 31.982 34.1262 31.9766 33.2827 32.2721C32.9277 32.3964 32.557 32.4721 32.1897 32.5496C32.0421 32.5802 31.8787 32.582 31.731 32.5496C31.2636 32.4451 30.8032 32.2919 30.3323 32.2072C29.8982 32.1297 29.4536 32.0757 29.0143 32.0883C28.7156 32.0955 28.4221 32.2505 28.1216 32.3117C27.6542 32.4072 27.178 32.5604 26.7141 32.5388C26.2097 32.5153 25.7142 32.3171 25.2133 32.2C24.9322 32.1333 24.651 32.0775 24.3171 32.0036H24.3189ZM24.4173 30.144C24.1976 30.1621 24.0922 30.1567 23.9938 30.1819C23.7636 30.2395 23.5352 30.3044 23.312 30.3837C23.2716 30.3981 23.2311 30.5062 23.2417 30.5585C23.2505 30.5963 23.3436 30.6342 23.4016 30.636C23.4859 30.6378 23.5703 30.5891 23.6529 30.5927C24.1625 30.6107 24.709 30.5278 25.1747 30.6864C26.3169 31.072 27.4222 31.0612 28.5486 30.6792C29.1145 30.4882 29.7014 30.4792 30.2655 30.6792C31.3761 31.072 32.4832 31.0756 33.5938 30.7044C34.2158 30.4972 34.8326 30.5044 35.4582 30.6882C35.7376 30.7693 36.0241 30.8252 36.3105 30.872C36.3737 30.8828 36.4493 30.8071 36.5178 30.7729C36.4827 30.7026 36.4634 30.6071 36.4071 30.5657C36.3263 30.5062 36.2209 30.481 36.1225 30.4504C35.1507 30.1386 34.1772 30.0666 33.1931 30.3999C32.3883 30.672 31.5782 30.6666 30.7663 30.4161C29.9298 30.1567 29.0864 30.0792 28.2411 30.3729C27.3484 30.681 26.4592 30.654 25.5613 30.3945C25.1518 30.2756 24.7266 30.2125 24.4173 30.1476V30.144ZM24.4384 28.2214C24.1326 28.2737 23.8901 28.2899 23.6652 28.362C23.5053 28.4142 23.2311 28.598 23.2417 28.6268C23.3366 28.8719 23.5598 28.7602 23.7249 28.7259C24.4032 28.5854 25.0464 28.7223 25.6931 28.926C26.3767 29.1404 27.0813 29.1944 27.7719 28.9746C28.8509 28.6286 29.9175 28.5872 31.0018 28.9584C31.6695 29.1872 32.3602 29.1512 33.0297 28.935C34.0243 28.616 35.0136 28.598 36.0118 28.9061C36.0996 28.9332 36.2824 28.8935 36.3052 28.8377C36.3738 28.6629 36.2332 28.616 36.0891 28.5674C35.1366 28.2466 34.1983 28.1637 33.2159 28.4989C32.6782 28.6827 32.1036 28.8773 31.5044 28.7187C31.0404 28.5944 30.58 28.4484 30.1091 28.3602C29.7594 28.2953 29.3886 28.2502 29.0424 28.3007C28.5188 28.3764 28.0056 28.5331 27.4925 28.6737C27.0673 28.7908 26.6561 28.7836 26.229 28.6647C25.6193 28.4935 25.0007 28.3602 24.4401 28.2232L24.4384 28.2214ZM24.3909 29.2179C24.3857 29.2413 24.3822 29.2647 24.3769 29.2899C24.2398 29.2899 24.101 29.2791 23.9657 29.2917C23.7636 29.3116 23.5598 29.3386 23.3647 29.3908C23.3137 29.4053 23.2909 29.526 23.254 29.5981C23.312 29.6251 23.37 29.6737 23.428 29.6737C23.5299 29.6755 23.6318 29.6485 23.7337 29.6359C24.4437 29.553 25.1343 29.6521 25.8073 29.8864C26.4768 30.1206 27.1657 30.1296 27.8211 29.9044C28.886 29.5368 29.9351 29.5134 30.9877 29.9026C31.543 30.108 32.1317 30.126 32.6571 29.9711C33.7501 29.6503 34.8203 29.4611 35.9309 29.8269C36.0434 29.8647 36.1646 29.89 36.2824 29.8936C36.3544 29.8972 36.4282 29.8503 36.502 29.8269C36.4528 29.7458 36.423 29.6197 36.3527 29.5909C36.1488 29.5044 35.9309 29.4485 35.7148 29.3962C34.9521 29.2125 34.1561 29.162 33.4251 29.3854C32.3935 29.699 31.4253 29.6323 30.399 29.3926C29.7699 29.2467 29.06 29.2737 28.4204 29.3999C27.6401 29.5548 26.8792 29.7134 26.0885 29.5584C25.5226 29.4485 24.9585 29.3296 24.3927 29.2143L24.3909 29.2179Z" fill="#24418E"/>
<path d="M9.96552 50.1145C9.82669 49.6424 9.83724 49.5938 10.2484 49.5668C10.5155 49.5487 10.5823 49.4514 10.6157 49.192C10.6878 48.6063 10.8125 48.0261 10.9127 47.4441C10.9478 47.2369 10.9654 47.0261 10.997 46.8189C11.048 46.4801 11.1815 46.4224 11.4399 46.6531C12.3853 47.491 12.9968 48.5235 13.0706 49.8244C13.1216 50.7344 13.1954 51.6516 12.7947 52.5237C12.6647 52.8066 12.7174 53.0985 13.0232 53.3039C13.5099 53.6301 13.9791 53.985 14.4589 54.322C14.5045 54.3544 14.5748 54.349 14.6328 54.3616C14.6223 54.2986 14.6258 54.2283 14.5994 54.1724C14.545 54.0643 14.4764 53.9616 14.4079 53.8607C13.9738 53.2174 13.8157 52.4786 13.8016 51.7218C13.7876 51.0407 13.8508 50.3524 13.9282 49.6749C13.9756 49.2496 14.1408 49.2064 14.4747 49.4604C15.5782 50.2983 16.2724 51.3813 16.3462 52.8174C16.3795 53.4499 16.3497 54.0805 16.0703 54.6716C15.8594 55.1184 15.8928 55.2572 16.3145 55.4716C17.2933 55.9671 18.2827 56.441 19.2703 56.9167C19.3195 56.9401 19.3915 56.9113 19.453 56.9059C19.4056 56.8609 19.3616 56.8068 19.3089 56.769C19.0014 56.5473 18.6851 56.3365 18.3828 56.1077C17.9681 55.7941 17.6957 55.3707 17.5587 54.8644C17.4304 54.3887 17.5165 53.9634 17.882 53.612C18.2071 53.3003 18.5217 52.976 18.8362 52.6534C19.1016 52.3813 19.4091 52.284 19.7746 52.3921C21.2173 52.8192 22.3349 53.6337 22.8639 55.1364C22.9429 55.3635 22.9465 55.6175 23.008 55.8536C23.0255 55.9203 23.1204 55.9671 23.1784 56.023C23.21 55.9671 23.2522 55.9149 23.2716 55.8536C23.3805 55.504 23.4578 55.14 23.5914 54.8013C24.1273 53.4445 25.2098 52.7705 26.519 52.3957C26.8669 52.2966 27.1604 52.3813 27.4152 52.6354C27.7737 52.9886 28.1374 53.3363 28.4906 53.6949C28.8333 54.0409 28.8702 54.4517 28.7367 54.9112C28.5715 55.4806 28.2165 55.8878 27.7649 56.232C27.663 56.3095 27.5874 56.423 27.5013 56.5185C27.6313 56.4897 27.7702 56.4825 27.8914 56.4302C28.2552 56.2771 28.6084 56.1041 28.9704 55.9491C29.1637 55.8662 29.2287 55.7419 29.1725 55.5347C29.1443 55.4338 29.1549 55.322 29.1268 55.2229C28.9036 54.4373 29.0231 53.6463 29.1496 52.8751C29.3007 51.9543 29.617 51.0786 30.2057 50.3398C30.3235 50.192 30.4623 50.0533 30.6152 49.9416C30.9684 49.6839 31.2706 49.7902 31.3075 50.2317C31.3515 50.7506 31.3743 51.2948 31.2706 51.7993C31.1055 52.5994 30.8401 53.3814 30.5871 54.1598C30.4851 54.4715 30.2971 54.7544 30.1583 55.0554C30.1267 55.1238 30.1337 55.2121 30.1231 55.2896C30.1864 55.2788 30.262 55.2896 30.3112 55.2554C30.8946 54.8896 31.4833 54.5292 32.0491 54.1346C32.1633 54.0553 32.2758 53.8247 32.2477 53.6985C32.0052 52.6714 32.1071 51.6317 32.1106 50.5974C32.1141 49.6496 32.3812 48.7649 32.8381 47.9432C32.9822 47.6856 33.1562 47.4423 33.3389 47.2117C33.4022 47.1306 33.5498 47.0513 33.6324 47.0747C33.7168 47.0982 33.7853 47.2387 33.8327 47.3414C33.8679 47.4171 33.8644 47.5126 33.8679 47.6009C33.903 49.0244 33.9522 50.4479 33.4057 51.8065C33.2511 52.1921 33.1615 52.6084 33.056 53.0138C33.0367 53.0895 33.0771 53.1814 33.0894 53.2661C33.1632 53.239 33.2458 53.2264 33.3091 53.1814C33.4496 53.0823 33.585 52.9724 33.715 52.857C34.128 52.4967 34.1174 52.4985 33.9276 51.9435C33.8784 51.8011 33.845 51.6101 33.8978 51.484C33.9645 51.3254 34.1104 51.1452 34.258 51.1002C34.3687 51.0659 34.5356 51.2317 34.6797 51.3074C34.815 51.3777 34.7079 51.7308 34.9925 51.6065C35.2368 51.5002 35.3633 51.2119 35.3036 50.9506C35.2807 50.8497 35.228 50.7578 35.1858 50.6623C34.931 50.0785 34.7623 49.4713 34.7869 48.8262C34.8221 47.9505 34.8361 47.0693 34.9416 46.2008C34.996 45.7431 35.2227 45.3053 35.3791 44.862C35.4072 44.7827 35.4617 44.698 35.5267 44.6476C35.6708 44.5376 35.8501 44.3484 35.9766 44.3755C36.1084 44.4043 36.2437 44.6368 36.2876 44.8061C36.3755 45.1431 36.4335 45.4945 36.4475 45.844C36.4897 46.972 36.4475 48.0982 36.2367 49.2082C36.1629 49.5992 36.0082 49.974 35.8975 50.3596C35.88 50.4191 35.9098 50.4911 35.9169 50.5578C35.9573 50.5326 36.0082 50.5164 36.0346 50.4803C36.4634 49.9109 36.8834 49.3343 37.3174 48.7685C37.5002 48.5289 37.5072 48.3307 37.2682 48.1378C37.2278 48.1054 37.1926 48.064 37.168 48.0189C37.0433 47.8009 37.0942 47.5252 37.2928 47.4135C37.5072 47.2946 37.6478 47.4153 37.7655 47.5901C37.8094 47.6549 37.8569 47.7144 37.9043 47.7757C37.9535 47.7072 38.0431 47.6405 38.0467 47.5684C38.0572 47.3847 38.0713 47.181 38.0098 47.0153C37.7462 46.3125 37.4176 45.6314 37.1838 44.9196C36.8025 43.7574 36.6285 42.561 36.8851 41.3411C36.9589 40.9843 37.0837 40.6293 37.2401 40.3014C37.3877 39.9914 37.5458 39.9987 37.6724 40.3212C37.9078 40.9212 38.124 41.5321 38.3102 42.1501C38.6599 43.3087 38.6336 44.5052 38.6213 45.7017C38.6195 45.8656 38.6863 46.0296 38.7197 46.1936C38.8146 46.0603 38.9376 45.9395 39.0009 45.79C39.34 44.9863 39.6598 44.1737 39.9937 43.3682C40.0956 43.1213 40.006 42.9448 39.8637 42.7448C39.1924 41.7879 38.5967 40.7825 38.2154 39.6635C37.892 38.7175 37.7585 37.7463 38.0062 36.7606C38.0695 36.5066 38.2171 36.139 38.3999 36.0831C38.6881 35.9948 38.7548 36.3858 38.8655 36.6111C39.6106 38.1301 40.1958 39.6941 40.1888 41.4312C40.1888 41.642 40.2819 41.8528 40.3311 42.0636C40.4049 41.8726 40.4998 41.6852 40.5508 41.487C40.6861 40.9645 40.7985 40.4383 40.9251 39.914C41.0252 39.5013 40.962 39.3193 40.5701 39.1157C40.3294 38.9896 40.1853 38.786 40.1694 38.5445C40.1589 38.3841 40.2661 38.1715 40.3856 38.0544C40.5385 37.9048 40.7054 38.0346 40.8231 38.1769C40.8882 38.2562 40.9567 38.3427 40.9848 38.4382C41.0235 38.5697 41.0235 38.7121 41.041 38.8508C41.0604 38.7049 41.0569 38.5499 41.1043 38.4148C41.3134 37.8129 41.041 37.4796 40.5877 37.1084C39.4261 36.157 38.7707 34.8434 38.3436 33.4109C38.261 33.1334 38.2821 32.8163 38.2962 32.5189C38.312 32.1496 38.5721 32.0234 38.8515 32.2631C39.1098 32.4865 39.347 32.7514 39.5403 33.0361C39.8233 33.4523 40.0552 33.9046 40.3241 34.3317C40.3557 34.3803 40.4559 34.7659 40.5929 34.3425C40.6808 34.0704 40.9005 34.1551 41.0955 34.2866C41.3064 34.4272 41.396 34.3767 41.3855 34.1244C41.3714 33.7677 41.2941 33.4469 40.9831 33.2037C40.2696 32.6505 39.6458 32 39.0747 31.2937C38.3718 30.4233 38.0291 29.4125 37.9078 28.3079C37.9008 28.2376 37.8885 28.1637 37.9061 28.0971C37.9307 28.0016 37.9658 27.843 38.0203 27.8322C38.117 27.8124 38.2628 27.8484 38.3331 27.9205C38.739 28.3223 39.1467 28.7259 39.521 29.1602C40.0816 29.8125 40.4348 30.5945 40.7757 31.3819C40.9145 31.7027 41.099 32.0018 41.2642 32.3099C41.2589 31.9586 41.2607 31.609 41.2431 31.2576C41.2343 31.0828 41.1957 30.9098 41.1641 30.7369C41.1043 30.4287 41.0129 30.1657 40.6316 30.135C40.3821 30.1152 40.238 29.9512 40.2362 29.6719C40.2345 29.4125 40.3311 29.2827 40.5965 29.2737C40.7704 29.2665 40.7406 29.1566 40.6421 29.0755C40.2309 28.7331 39.8303 28.3728 39.3945 28.0646C38.5405 27.461 37.9096 26.6682 37.4386 25.7348C37.3859 25.6285 37.3578 25.414 37.4123 25.369C37.4966 25.2987 37.6794 25.2843 37.7919 25.3258C38.4579 25.5726 39.094 25.8861 39.5298 26.4862C39.9076 27.0051 40.252 27.5493 40.614 28.0809C40.6457 28.1259 40.6966 28.1583 40.737 28.1962C40.7423 28.1439 40.7616 28.0899 40.7493 28.0412C40.6211 27.5349 40.4963 27.0267 40.3557 26.524C40.3047 26.342 40.18 26.2303 39.9726 26.2429C39.8725 26.2483 39.7407 26.2573 39.6739 26.2015C39.5491 26.097 39.4085 25.9582 39.3734 25.8105C39.3242 25.605 39.4876 25.5041 39.6844 25.4807C39.7301 25.4753 39.7741 25.4501 39.8197 25.4357C39.7705 25.3924 39.7284 25.3348 39.6721 25.3059C39.2732 25.1041 38.862 24.9257 38.4737 24.7041C37.7321 24.2824 37.1048 23.7094 36.5424 23.0644C36.4739 22.9851 36.4528 22.8607 36.4106 22.7562C36.5178 22.7166 36.625 22.6427 36.7322 22.6427C37.3771 22.6373 37.9219 22.9364 38.4473 23.2788C38.5475 23.3437 38.6512 23.4662 38.7461 23.459C38.9271 23.4464 39.1256 23.3905 39.2662 23.2842C39.3154 23.2464 39.2275 23.0031 39.1854 22.8571C39.0711 22.4625 38.7707 22.3328 38.4069 22.2859C37.5265 22.1688 36.7779 21.7706 36.1611 21.1255C35.9713 20.9273 35.8097 20.6931 35.662 20.4588C35.6023 20.3669 35.6128 20.2282 35.5918 20.1092C35.7025 20.0966 35.822 20.0516 35.9239 20.075C36.1892 20.1381 36.4493 20.2318 36.7094 20.3147C36.7726 20.3345 36.8341 20.3741 36.8992 20.3831C36.9185 20.3867 36.9747 20.3002 36.9695 20.2912C36.7076 19.9435 37.4826 19.9687 37.1997 19.6101C36.857 19.1759 36.4352 18.8605 35.9256 18.6659C35.1735 18.3794 34.562 17.8695 33.9733 17.3343C33.8187 17.1938 33.5867 17.001 33.7291 16.7559C33.8784 16.4982 34.1772 16.5811 34.388 16.6568C35.2649 16.9667 35.9819 17.5109 36.5688 18.2587C36.8781 18.6515 37.2647 18.9794 37.6179 19.3344C37.639 19.356 37.6794 19.3596 37.7093 19.3723C37.7216 19.3272 37.7532 19.275 37.7409 19.2371C37.6618 19.0065 37.5687 18.7794 37.4861 18.5506C37.2313 17.8388 37.2471 17.0983 37.2735 16.3595C37.277 16.2586 37.3613 16.0946 37.4351 16.0784C37.5195 16.0586 37.6601 16.1469 37.7268 16.2297C38.2294 16.8442 38.4579 17.5794 38.4965 18.3632C38.5246 18.9578 38.4666 19.5561 38.4491 20.1543C38.4473 20.2408 38.4491 20.3291 38.4684 20.412C38.479 20.457 38.5264 20.493 38.558 20.5345C38.5861 20.4966 38.6195 20.4606 38.6424 20.4174C38.6916 20.3255 38.7215 20.2192 38.7882 20.1417C38.9411 19.9633 39.1221 19.9903 39.2943 20.1182C39.4613 20.2426 39.4683 20.4102 39.3769 20.5849C39.3453 20.6462 39.2891 20.6931 39.2451 20.7453C38.9569 21.0823 38.9341 21.248 39.1291 21.6264C39.2398 21.8427 39.3611 22.0535 39.4771 22.2661C39.4911 22.0175 39.514 21.7688 39.5193 21.5201C39.5333 20.7813 39.5193 20.0408 39.5562 19.3038C39.572 18.9758 39.6633 18.6497 39.7442 18.3272C39.7688 18.2299 39.8707 18.0857 39.9428 18.0821C40.0359 18.0785 40.1905 18.174 40.2204 18.2605C40.3891 18.7542 40.6017 19.2479 40.6597 19.7597C40.7722 20.7615 40.6597 21.7544 40.3346 22.7202C40.2134 23.0824 40.1536 23.4662 40.0816 23.8428C40.0675 23.9149 40.1308 24.0032 40.1571 24.0842C40.1958 24.0248 40.238 23.9653 40.2731 23.904C40.3645 23.7419 40.5121 23.65 40.6457 23.7887C40.7265 23.8716 40.7054 24.0608 40.723 24.2032C40.7265 24.2284 40.6896 24.2716 40.6632 24.2843C40.2081 24.4933 40.3135 24.8032 40.4629 25.1762C40.6175 25.5618 40.6949 25.9816 40.8073 26.3871C40.8196 26.4321 40.839 26.4772 40.8548 26.5222C40.8847 26.4664 40.9426 26.4087 40.9409 26.3528C40.9268 26.0195 40.9075 25.6861 40.8723 25.3546C40.7616 24.2987 40.9462 23.2914 41.3468 22.3238C41.5401 21.8571 41.7791 21.412 42.004 20.9597C42.0409 20.8841 42.0919 20.8066 42.1552 20.7525C42.3414 20.5867 42.5101 20.6282 42.5804 20.8714C42.6472 21.1057 42.7122 21.3544 42.7087 21.5958C42.7017 22.1562 42.6788 22.7184 42.6138 23.2752C42.5505 23.814 42.4556 24.3509 42.3203 24.8753C42.1095 25.6987 41.6754 26.4177 41.2273 27.1258C41.1236 27.2916 41.0182 27.452 41.1676 27.6466C41.1974 27.6844 41.2133 27.7349 41.2343 27.7781C41.2449 27.7349 41.2572 27.6934 41.266 27.6502C41.2695 27.634 41.266 27.616 41.266 27.598C41.2695 27.3114 41.4083 27.1295 41.6824 27.0844C41.8476 27.0574 41.9917 27.1096 42.0286 27.3114C42.0796 27.5925 41.9812 27.8358 41.7264 27.9097C41.3011 28.034 41.2695 28.3241 41.3257 28.6827C41.3943 29.1314 41.461 29.5818 41.5454 30.0287C41.5612 30.1098 41.6596 30.1747 41.7211 30.2467C41.7457 30.1693 41.7861 30.0936 41.7949 30.0143C42.0409 28.052 42.6296 26.2195 43.7683 24.5996C43.8175 24.5293 43.8615 24.4464 43.9265 24.3942C44.0143 24.3221 44.1338 24.214 44.2147 24.232C44.292 24.25 44.3781 24.4032 44.3957 24.5077C44.5415 25.3636 44.5521 26.2249 44.4062 27.079C44.1128 28.8016 43.2165 30.1981 42.1077 31.4774C42.0075 31.5946 41.8951 31.7171 41.8459 31.8577C41.8125 31.9568 41.8757 32.0901 41.8968 32.209C41.9671 32.1604 42.0374 32.1081 42.1095 32.0631C42.2993 31.9477 42.4978 31.8937 42.6788 32.0649C42.8159 32.1946 42.7825 32.5838 42.6173 32.7406C42.533 32.8217 42.4223 32.8992 42.3116 32.9244C42.0023 32.9965 41.8951 33.1947 41.9021 33.4992C41.9144 33.9388 41.9144 34.3785 41.9232 34.8182C41.9232 34.8686 41.9425 34.9191 41.9531 34.9695C41.9988 34.9263 42.069 34.8903 42.0884 34.8362C42.229 34.4416 42.3485 34.038 42.4943 33.6451C43.0109 32.2541 43.7701 31.009 44.6926 29.8665C44.8438 29.6791 45.0213 29.4954 45.2216 29.371C45.675 29.0881 45.9385 29.3007 45.9526 29.7422C45.9825 30.5945 45.7294 31.3657 45.3938 32.1171C44.9984 33.0001 44.4783 33.8055 43.8544 34.5335C43.445 35.0128 42.9617 35.4056 42.3854 35.6669C42.0831 35.8038 41.8828 36.0038 41.9004 36.3876C41.9162 36.7444 41.8951 36.7462 42.2483 36.6922C42.6823 36.6273 42.7632 36.7336 42.7368 37.3408C42.4609 37.4093 42.0743 37.3895 41.9355 37.5697C41.7721 37.7823 41.8265 38.1679 41.7844 38.4778C41.7668 38.5986 41.7387 38.7193 41.7246 38.84C41.7194 38.8887 41.7387 38.9427 41.7457 38.9932C41.8002 38.9608 41.8793 38.9445 41.9039 38.8959C42.1833 38.3787 42.4556 37.8562 42.7298 37.3336C42.9776 37.0003 43.1867 36.6255 43.4784 36.339C44.1198 35.7101 44.8016 35.1245 45.4676 34.5227C45.494 34.4992 45.5168 34.4614 45.5467 34.4578C45.6732 34.4362 45.8155 34.3857 45.9263 34.4236C45.979 34.4416 46.0036 34.6398 45.9895 34.7479C45.87 35.629 45.5643 36.4345 45.0687 37.1697C44.466 38.067 43.6822 38.7698 42.8282 39.3986C42.6331 39.5428 42.4469 39.7158 42.229 39.8058C41.6262 40.0545 41.4452 40.5644 41.3328 41.1501C41.2537 41.5609 41.1236 41.9609 41.0252 42.3682C41.0077 42.4438 41.0323 42.5321 41.0375 42.615C41.1061 42.5646 41.1869 42.5267 41.2396 42.4637C41.6051 42.0222 41.9601 41.5699 42.3309 41.1338C42.9266 40.4311 43.6383 39.8905 44.5046 39.5896C44.7612 39.5013 45.0336 39.4473 45.3042 39.422C45.689 39.386 45.7751 39.4959 45.5853 39.8257C45.2989 40.3212 45.0019 40.8239 44.6311 41.2546C43.7279 42.3051 42.6191 43.0997 41.4259 43.7754C41.2607 43.8691 41.0938 43.9574 40.9303 44.0511C40.8267 44.1106 40.7283 44.1755 40.6263 44.2385C40.73 44.2602 40.839 44.2692 40.9391 44.307C41.1588 44.3881 41.2625 44.6331 41.1131 44.8115C40.9901 44.9557 40.788 45.0944 40.6105 45.1088C40.4119 45.1251 40.2204 45.1125 40.1185 45.298C39.9674 45.5683 39.8514 45.8602 39.7266 46.1449C39.7266 46.1485 39.8215 46.2152 39.8391 46.2044C40.0095 46.0873 40.1624 45.9413 40.3399 45.835C41.1834 45.3359 42.0181 44.8205 42.8844 44.3665C43.1919 44.2043 43.5733 44.1394 43.9247 44.1268C44.3693 44.1124 44.5152 44.3683 44.3342 44.7881C44.0389 45.4746 43.4959 45.9377 42.8914 46.3179C41.9302 46.9252 40.8811 47.1828 39.7512 47.0819C39.5386 47.0639 39.2926 47.0008 39.1485 47.2531C39.1098 47.3216 39.0922 47.4099 39.0957 47.4874C39.0957 47.509 39.21 47.5324 39.275 47.5414C39.3418 47.5504 39.4121 47.5414 39.4806 47.5414C39.6932 47.5396 39.8549 47.6207 39.9006 47.8459C39.9357 48.0261 39.7249 48.3018 39.5122 48.3307C39.3277 48.3541 39.1362 48.3379 38.9499 48.3216C38.7267 48.3018 38.5492 48.3541 38.421 48.5595C38.2364 48.855 38.0361 49.1397 37.8481 49.4334C37.8252 49.4695 37.82 49.5451 37.8411 49.574C37.8604 49.5992 37.9395 49.6064 37.9746 49.5866C38.2611 49.428 38.5492 49.273 38.8234 49.0947C39.9761 48.3415 41.2484 48.0694 42.5945 48.1054C42.7315 48.109 42.9424 48.1631 42.9846 48.2568C43.0285 48.3559 42.9407 48.5505 42.8616 48.6694C42.0357 49.9271 40.8337 50.52 39.3998 50.6479C38.7882 50.702 38.1679 50.6713 37.5529 50.6785C37.3824 50.6803 37.2084 50.6695 37.0397 50.6947C36.9695 50.7056 36.9097 50.7939 36.8447 50.8479C36.8956 50.9002 36.9396 50.9686 37.0011 51.0029C37.2207 51.1236 37.3666 51.2804 37.2647 51.5525C37.1786 51.7813 36.8886 51.866 36.6004 51.7038C36.3667 51.5741 36.1927 51.5687 36.0047 51.7633C35.6568 52.1255 35.3001 52.4804 34.9504 52.8408C34.917 52.8751 34.8994 52.9237 34.8765 52.9651C34.924 52.9724 34.9767 52.9958 35.0206 52.9832C35.5162 52.8462 36.0065 52.6967 36.5038 52.5651C37.0819 52.4102 37.6618 52.2606 38.2452 52.1255C38.5774 52.048 38.9165 51.9975 39.2539 51.9507C39.6844 51.8912 40.1115 51.9182 40.5191 52.0876C40.8021 52.2047 40.8952 52.4246 40.6966 52.657C40.4647 52.9309 40.1976 53.1994 39.8953 53.3814C38.848 54.0103 37.7145 54.385 36.4985 54.4733C36.3105 54.4878 36.126 54.5454 35.9397 54.5526C35.5847 54.5652 35.2245 54.5869 34.8748 54.5436C34.4337 54.4896 34.0032 54.3472 33.5639 54.3022C33.3653 54.2823 33.1439 54.3887 32.9488 54.4787C32.8082 54.5436 32.759 54.6914 32.8961 54.8229C33.0472 54.9671 33.107 55.1382 32.933 55.268C32.8118 55.3581 32.557 55.4446 32.4796 55.3815C32.0421 55.0265 31.7187 55.2986 31.3638 55.5202C30.9403 55.7851 30.5027 56.0302 30.0739 56.2879C30.0335 56.3113 30.0089 56.3599 29.9773 56.3978C30.0265 56.405 30.081 56.4284 30.1267 56.4176C30.3727 56.3545 30.6204 56.2933 30.8612 56.2104C32.1756 55.7581 33.527 55.7635 34.8801 55.8932C35.7657 55.9779 36.6444 56.1275 37.5265 56.2518C37.6249 56.2662 37.7268 56.3005 37.8147 56.3491C38.0959 56.4987 38.0976 56.5545 37.8762 56.8068C37.4597 57.2807 36.9132 57.5348 36.3421 57.724C35.0909 58.1402 33.8029 58.169 32.5324 57.906C31.5325 57.6987 30.5589 57.3564 29.5801 57.0537C29.1742 56.9275 28.814 56.9095 28.3957 57.0915C27.4064 57.5222 26.3854 57.8789 25.3803 58.2718C25.2994 58.3042 25.2344 58.3799 25.1624 58.4339C25.2256 58.4862 25.2819 58.5601 25.3539 58.5853C25.7423 58.7204 26.1324 58.8484 26.526 58.9691C26.6033 58.9925 26.7246 59.0069 26.7755 58.9637C27.0391 58.7366 27.2764 58.861 27.5312 58.9781C27.9898 59.1907 28.5328 59.243 28.8351 59.7493C28.8878 59.8394 29.0354 59.8881 29.1479 59.9187C29.6153 60.0466 29.7242 60.4232 29.7787 60.8395C29.8209 61.1584 29.7383 61.2791 29.4237 61.2179C29.1127 61.1584 29.0916 61.3062 29.1408 61.526C29.2304 61.9368 29.3429 62.3405 29.4413 62.7495C29.5116 63.0396 29.5801 63.3297 29.6346 63.6234C29.6487 63.6955 29.5995 63.7802 29.5784 63.8595C29.5028 63.8288 29.4114 63.8144 29.3517 63.764C29.1566 63.5946 28.9756 63.4054 28.7841 63.2324C28.5926 63.0594 28.4133 63.0918 28.2464 63.2828C28.0988 63.454 27.9476 63.6216 27.7912 63.7838C27.6559 63.9243 27.5452 63.8973 27.4995 63.7027C27.4591 63.5315 27.4187 63.3567 27.4134 63.1837C27.4046 62.8558 27.2324 62.7657 26.9442 62.7837C26.7053 62.7981 26.461 62.7603 26.2238 62.7927C25.795 62.8504 25.4892 62.6558 25.2485 62.335C24.7793 61.7098 24.3171 61.0791 23.8655 60.4394C23.442 59.8394 22.7953 59.8899 22.3929 60.4845C21.8886 61.2305 21.3087 61.926 20.7516 62.6342C20.5337 62.9117 20.2315 63.0162 19.8835 63.0054C19.6428 62.9963 19.4003 63.036 19.1631 63.009C18.968 62.9873 18.7677 62.9261 18.5919 62.836C18.3002 62.6882 18.2493 62.7008 18.2247 63.045C18.2071 63.2901 18.2176 63.5387 18.2001 63.7838C18.1948 63.8613 18.1386 63.9351 18.1052 64.0126C18.0208 63.9712 17.9172 63.9496 17.8557 63.8847C17.7028 63.7207 17.5692 63.5351 17.4251 63.3603C17.3074 63.218 17.1791 63.1982 17.0297 63.3207C16.789 63.5189 16.5377 63.7027 16.3005 63.9027C16.1335 64.0433 16.0527 63.9964 16.0474 63.7946C16.0439 63.6558 16.065 63.5135 16.0949 63.3765C16.2003 62.881 16.318 62.3891 16.4217 61.8954C16.4463 61.7765 16.4375 61.6503 16.4428 61.5278C16.4534 61.335 16.4059 61.2539 16.1775 61.2719C15.8858 61.2953 15.7821 61.162 15.8699 60.8971C15.9859 60.5422 16.0316 60.1385 16.4481 59.9511C16.5799 59.8917 16.7134 59.6989 16.7345 59.5511C16.7732 59.2844 16.9331 59.2015 17.1334 59.1331C17.4901 59.0105 17.8451 58.8844 18.2036 58.7673C18.476 58.679 18.7431 58.5348 19.0383 58.7402C19.1139 58.7925 19.2703 58.7366 19.3845 58.7078C19.6674 58.6339 19.9468 58.551 20.2262 58.4646C20.2842 58.4465 20.3316 58.3979 20.3844 58.3637C20.3334 58.324 20.2877 58.2718 20.2315 58.2483C19.6287 58.0033 18.9908 57.8231 18.4268 57.5041C17.8117 57.1564 17.1387 57.214 16.5008 57.0573C16.3567 57.0212 16.1388 57.1438 16.0017 57.2537C15.1407 57.9528 14.1584 58.3799 13.1022 58.6321C12.4292 58.7925 11.7755 58.6159 11.1323 58.4177C10.6104 58.2573 10.092 58.088 9.57013 57.9258C9.34169 57.8555 9.29073 57.7348 9.43658 57.5456C9.53147 57.4231 9.65448 57.3221 9.76695 57.214C10.9566 56.0572 12.3888 55.7058 13.9861 55.8464C14.7699 55.9149 15.4974 56.1239 16.1687 56.5419C16.2232 56.5762 16.311 56.5545 16.3831 56.5599C16.3356 56.5167 16.2917 56.4626 16.2372 56.4302C15.5484 56.0068 14.8595 55.5851 14.1707 55.1635C14.1408 55.1455 14.1039 55.1346 14.0846 55.1076C13.6382 54.5202 13.0091 54.6355 12.4222 54.6896C12.1463 54.7148 11.8897 54.9076 11.6156 54.9977C10.7124 55.2986 9.79858 55.5058 8.84087 55.3094C8.30666 55.1995 7.75136 55.2283 7.23824 54.9797C6.37191 54.5598 5.63561 53.9778 5.02057 53.2318C4.86768 53.0462 4.92392 52.9255 5.16642 52.8642C5.96422 52.6678 6.7585 52.4642 7.55982 52.284C8.20298 52.1381 8.82505 52.2894 9.42252 52.5165C10.3574 52.8715 11.236 53.3363 11.9793 54.0391C12.0532 54.1094 12.141 54.1922 12.2324 54.2067C12.3589 54.2283 12.4942 54.1922 12.626 54.1814C12.5592 54.0877 12.5065 53.9814 12.4257 53.9039C11.7105 53.2246 10.9847 52.5543 10.2748 51.8696C10.0868 51.6876 9.98133 51.6227 9.92686 51.9489C9.91807 51.9993 9.89699 52.0624 9.86008 52.0894C9.74235 52.1741 9.61582 52.2966 9.4893 52.3002C9.41374 52.302 9.27491 52.1164 9.26437 52.0047C9.2345 51.7092 9.13609 51.5885 8.84614 51.711C8.83208 51.7182 8.81275 51.7146 8.79518 51.7128C8.4982 51.7056 8.29436 51.5633 8.29787 51.3669C8.30314 51.1272 8.58958 50.9362 8.87953 50.9957C8.99375 51.0191 9.09391 51.1092 9.20814 51.1326C9.296 51.1506 9.39265 51.1092 9.48754 51.0948C9.45415 51.0047 9.44361 50.8839 9.38035 50.8281C8.98848 50.4839 8.54213 50.2587 8.01495 50.3956C7.0713 50.6407 6.22957 50.3758 5.40717 49.9235C4.25264 49.2893 3.36171 48.3487 2.51646 47.3522C2.46023 47.2874 2.41981 47.2081 2.37939 47.1306C2.29504 46.9702 2.32492 46.8369 2.51646 46.8405C3.02958 46.8477 3.55325 46.8225 4.05407 46.9108C4.69196 47.0243 5.31403 47.2279 5.93786 47.4189C6.11534 47.4729 6.15225 47.4405 6.13995 47.2729C6.13292 47.1846 6.11886 47.0927 6.13643 47.0099C6.18036 46.8171 6.12589 46.7666 5.93083 46.7774C5.84121 46.7828 5.68833 46.6801 5.66724 46.5972C5.64615 46.5161 5.74983 46.3972 5.80607 46.2981C5.82188 46.2693 5.85527 46.2495 5.88339 46.2296C6.24187 45.9756 6.24538 45.9702 5.82715 45.7485C5.67778 45.6692 5.51436 45.6044 5.35093 45.5647C3.77818 45.1809 2.61838 44.2169 1.79247 42.833C1.39884 42.1754 1.17918 41.4276 1.10713 40.6491C1.09483 40.5158 1.14052 40.3789 1.15809 40.2437C1.30043 40.2725 1.45331 40.2761 1.58335 40.332C2.07011 40.541 2.54809 40.7717 3.03485 40.9843C4.20695 41.4924 4.84308 42.4871 5.33336 43.6187C5.40189 43.7754 5.48449 43.9268 5.56181 44.08C5.53193 43.9268 5.50909 43.7718 5.47043 43.6205C5.24198 42.7051 4.97312 41.7969 4.78685 40.8726C4.60234 39.95 3.99432 39.5392 3.29844 39.4509C2.62717 39.3662 2.13689 38.9121 1.72217 38.4346C0.808395 37.3859 0.131847 36.1948 0.00708085 34.7479C-0.00346276 34.6254 -0.0210354 34.501 -0.00873456 34.3803C0.0228963 34.0506 0.170507 33.9497 0.474514 34.1028C1.79949 34.7695 2.97686 35.6272 3.76939 36.939C4.12612 37.5282 4.2667 38.1949 4.29306 38.8869C4.29482 38.9535 4.32645 39.0184 4.34578 39.0833C4.36335 39.0202 4.39849 38.9553 4.39498 38.8923C4.36335 38.2959 4.31766 37.6994 4.28954 37.103C4.27373 36.7696 4.27373 36.4345 4.27724 36.0993C4.28603 35.5047 4.00662 35.0722 3.50053 34.8434C2.88373 34.5623 2.37236 34.1605 2.01915 33.5893C1.70109 33.0757 1.40587 32.5334 1.19499 31.9676C0.840026 31.0198 0.604552 30.0305 0.532504 29.0106C0.525475 28.9061 0.511417 28.7998 0.514931 28.6953C0.52196 28.4629 0.671328 28.3043 0.924375 28.4899C1.8856 29.1926 2.6834 30.0521 3.33183 31.0576C3.58488 31.4504 3.56555 31.463 3.94863 31.2378C4.00838 31.2036 4.07164 31.1765 4.13315 31.1459C4.39849 31.0108 4.47933 30.8522 4.33699 30.6233C4.18235 30.3747 4.01717 30.0972 3.78696 29.944C2.96456 29.3999 2.52349 28.5764 2.13162 27.7115C1.72569 26.8123 1.76435 25.8717 1.94359 24.9275C1.95941 24.8446 2.00685 24.7654 2.04727 24.6897C2.13513 24.5257 2.20542 24.4374 2.37764 24.641C2.74842 25.0771 3.15259 25.4843 3.5427 25.9042C3.97323 26.3672 4.19289 26.9475 4.26494 27.5565C4.3405 28.1962 4.30184 28.8485 4.31239 29.4954C4.31415 29.5999 4.29657 29.7116 4.32469 29.8089C4.34402 29.8738 4.43012 29.917 4.48636 29.9711C4.51799 29.9152 4.56719 29.8611 4.57949 29.8017C4.74995 28.944 4.9327 28.0881 5.07504 27.225C5.15588 26.7384 5.0399 26.2736 4.68844 25.915C3.30196 24.5059 3.33359 22.8247 3.80102 21.0661C3.88186 20.7615 3.99081 20.7435 4.24913 20.9471C4.90107 21.4589 5.28416 22.1616 5.50733 22.9508C5.58992 23.2427 5.61101 23.0193 5.6936 22.9761C5.85527 22.8896 5.97828 22.9544 6.07844 23.113C6.22605 23.3455 6.31567 23.2391 6.37015 23.0373C6.47383 22.6589 6.40881 22.2805 6.19969 21.9868C5.77971 21.3994 5.77971 20.7543 5.79376 20.0804C5.81309 19.147 6.06966 18.2857 6.48613 17.4676C6.6355 17.1739 6.74972 17.1631 6.87448 17.4532C7.03264 17.819 7.19782 18.1992 7.25405 18.5884C7.36125 19.3434 7.63187 20.1038 7.33137 20.8787C7.31029 20.9309 7.34016 21.0048 7.34543 21.0679C7.39815 21.0246 7.46668 20.9904 7.50007 20.9345C7.84801 20.3579 8.28557 19.8444 8.49293 19.1759C8.77409 18.2713 9.35575 17.5668 10.1641 17.1253C10.621 16.8766 11.1587 16.7667 11.6736 16.655C11.9512 16.5937 11.9934 16.7018 11.8616 16.9811C11.6912 17.3451 11.4891 17.6947 11.3555 18.0731C11.0884 18.8335 10.4962 19.2335 9.84602 19.5723C9.58771 19.7056 9.31357 19.8335 9.03241 19.8894C8.7653 19.9435 8.60539 20.0786 8.47184 20.2984C8.37168 20.4624 8.24691 20.6084 8.1485 20.7723C8.0993 20.8534 8.08173 20.9525 8.0501 21.0444C8.1362 20.9976 8.22231 20.9489 8.31017 20.9039C8.6915 20.7111 9.06756 20.5021 9.45943 20.3345C9.62637 20.2624 9.82845 20.248 10.013 20.2552C10.5243 20.275 10.6596 20.4948 10.4242 20.9651C9.84427 22.1184 8.97793 22.8589 7.64944 22.8878C7.03088 22.9004 6.92193 22.9941 6.75148 23.6392C6.73742 23.6896 6.70227 23.7347 6.697 23.7851C6.68821 23.8878 6.65834 24.0644 6.69876 24.086C6.92017 24.2014 6.80595 23.9635 6.86394 23.8986C6.92545 23.832 7.03264 23.7221 7.07833 23.7401C7.19606 23.7851 7.3261 23.8716 7.38585 23.9779C7.59145 24.3437 7.64593 24.3779 8.01847 24.2068C8.17486 24.1347 8.31369 24.023 8.4736 23.9635C8.69501 23.8824 8.78991 23.9707 8.77761 24.2176C8.69501 25.9132 7.60726 27.2195 6.154 27.7763C5.58816 27.9926 5.31227 28.2845 5.34215 28.7205C5.3439 28.753 5.4388 28.8142 5.47043 28.8034C5.60574 28.7512 5.7428 28.4827 5.86757 28.7872C5.95192 28.9926 5.9115 29.2485 5.669 29.3025C5.28767 29.3872 5.51436 29.4629 5.6444 29.5692C6.031 29.8864 5.92556 29.8629 6.25417 29.553C6.61792 29.2089 6.9641 28.8431 7.32962 28.4989C7.40694 28.425 7.54928 28.3403 7.62308 28.3692C7.70392 28.3998 7.77421 28.5494 7.79002 28.6557C8.1362 30.845 7.39112 32.5676 5.65845 33.8704C5.48273 34.0019 5.34215 34.1857 5.20157 34.3605C5.07328 34.5191 4.91689 34.6632 5.27537 34.7984C5.49854 34.883 5.44583 35.2128 5.22265 35.4182C5.15763 35.4777 4.91864 35.4957 5.09086 35.6182C5.21035 35.7029 5.38432 36.0056 5.60398 35.7263C5.68833 35.6182 5.75686 35.4921 5.81485 35.366C6.13292 34.6704 6.6478 34.1803 7.30502 33.8307C7.84098 33.546 7.96048 33.6163 8.00968 34.2163C8.08876 35.1822 7.78651 36.0471 7.37531 36.885C6.98344 37.6832 6.4791 38.3697 5.65143 38.7589C5.27888 38.9337 5.18926 39.2058 5.25955 39.6329C5.27888 39.7536 5.29997 39.8761 5.31403 39.9968C5.3439 40.2383 5.40717 40.3086 5.63561 40.1374C5.99585 39.8653 6.09426 39.9031 6.35433 40.3032C6.18739 40.3807 6.02397 40.4689 5.85175 40.532C5.73577 40.5753 5.63034 40.6167 5.77619 40.7248C6.07317 40.9465 6.09426 41.2438 6.04681 41.5717C6.01342 41.5771 5.97125 41.5717 5.94665 41.5879C5.75862 41.7213 5.72699 42.3826 5.90623 42.5015C5.91677 42.5087 6.01167 42.4384 6.01342 42.4006C6.02924 42.1231 6.03275 41.8438 6.03802 41.5645C6.1417 41.1411 6.24362 40.7194 6.3473 40.296C6.41584 40.2095 6.50897 40.132 6.5529 40.0329C6.92193 39.2004 7.3507 38.4022 7.9183 37.694C7.99738 37.5949 8.17311 37.4526 8.22407 37.4796C8.3418 37.5427 8.48063 37.6994 8.4859 37.8238C8.53335 38.804 8.58958 39.786 8.56849 40.7663C8.54916 41.6492 8.2926 42.4781 7.85153 43.2547C7.65295 43.6043 7.36652 43.8295 7.09239 44.0872C6.68294 44.471 6.6478 44.7413 6.91842 45.244C6.98343 45.3647 7.03791 45.4945 7.07481 45.6278C7.11347 45.7683 7.14335 45.9089 7.25054 45.6764C7.35422 45.4512 7.55279 45.5269 7.63714 45.5972C7.78299 45.7197 7.89194 45.9089 7.96223 46.0909C7.98156 46.1413 7.82517 46.3215 7.725 46.3486C7.54225 46.399 7.47898 46.4747 7.57388 46.6369C7.93587 47.2495 8.3049 47.8568 8.67568 48.464C8.69326 48.491 8.74949 48.4946 8.78639 48.509C8.78288 48.4586 8.79342 48.4027 8.77585 48.3577C8.69677 48.1631 8.58606 47.9793 8.53159 47.7793C8.38749 47.2585 8.22231 46.7378 8.14323 46.2044C7.94817 44.898 8.35938 43.7466 9.12379 42.7213C9.36805 42.3934 9.61407 42.4186 9.80736 42.7718C10.3099 43.6962 10.5911 44.6728 10.4066 45.7467C10.2766 46.5053 10.1957 47.2765 9.78803 47.9523C9.65273 48.1757 9.50336 48.3901 9.37156 48.6153C9.14487 49.001 9.17299 49.2803 9.47348 49.6136C9.62988 49.7884 9.79858 49.9542 9.962 50.1236C10.3398 50.9722 11.0691 51.5074 11.6824 52.1471C11.7035 52.1705 11.7632 52.1543 11.8054 52.1579C11.7825 52.111 11.7614 52.0642 11.7368 52.0191C11.4891 51.5651 11.2149 51.1236 10.9988 50.6533C10.8494 50.3326 10.7387 50.0461 10.3047 50.1794C10.201 50.2118 10.071 50.1506 9.95322 50.1326L9.96552 50.1145ZM19.5356 54.522C19.5128 54.5706 19.4636 54.6247 19.4688 54.6716C19.4794 54.7544 19.5128 54.8373 19.5514 54.9148C20.0628 55.9347 20.85 56.6987 21.7375 57.3654C21.8025 57.414 21.9624 57.4014 22.0362 57.351C22.3349 57.1456 22.3437 57.0573 22.1487 56.7564C22.0731 56.6392 21.9958 56.5257 21.9114 56.414C21.3333 55.641 20.6761 54.9707 19.7605 54.6247C19.6973 54.6013 19.6358 54.5688 19.5338 54.522H19.5356ZM24.4313 57.3059C24.5157 57.2645 24.6756 57.2267 24.7846 57.1275C25.2661 56.6843 25.7511 56.2428 26.1939 55.7635C26.4364 55.5004 26.6068 55.1671 26.7914 54.8535C26.837 54.7761 26.8142 54.6571 26.823 54.5562C26.7334 54.5688 26.6385 54.5616 26.5576 54.5959C26.4153 54.6553 26.2818 54.7328 26.1464 54.8103C25.2889 55.2968 24.6246 55.9833 24.1344 56.8482C23.9938 57.0951 24.1045 57.2879 24.4331 57.3077L24.4313 57.3059ZM20.0663 60.9097C20.1208 60.8683 20.1665 60.8413 20.1998 60.8034C20.5847 60.3836 20.9678 59.9619 21.3491 59.5385C21.379 59.5061 21.386 59.452 21.4036 59.407C21.3421 59.3889 21.2771 59.3475 21.2191 59.3565C20.9502 59.4034 20.6813 59.461 20.4142 59.5205C19.5848 59.7025 19.4636 59.9908 19.9011 60.7386C19.9187 60.7692 19.9292 60.8052 19.9538 60.8287C19.9872 60.8611 20.0294 60.8827 20.0663 60.9079V60.9097ZM4.80442 33.2577L4.83078 33.2613C4.83078 33.4361 4.82375 33.6127 4.8343 33.7857C4.83781 33.8397 4.89053 33.892 4.9204 33.9443C4.97312 33.9046 5.05923 33.8722 5.07153 33.8217C5.11019 33.6541 5.14885 33.4794 5.14006 33.31C5.09261 32.3171 5.24198 31.3603 5.61979 30.4468C5.72172 30.1999 5.7182 30.0828 5.42122 29.9963C5.23144 29.9404 5.15588 29.8828 5.12952 30.1278C5.02232 31.1711 4.91162 32.2144 4.80267 33.2577H4.80442ZM26.4751 60.0412C26.4153 60.016 26.338 59.9764 26.2572 59.9493C25.8741 59.816 25.4892 59.6826 25.1044 59.5547C25.0798 59.5457 25.02 59.5691 25.0165 59.5835C25.0112 59.6268 25.0095 59.6881 25.0358 59.7133C25.3293 60.025 25.6245 60.3385 25.9321 60.6359C25.9813 60.6845 26.1535 60.6953 26.1763 60.6593C26.2765 60.5025 26.345 60.3241 26.4751 60.0412ZM7.78475 48.4892C7.7373 48.4117 7.7127 48.3685 7.68634 48.3252C7.55982 48.1162 7.42627 47.9126 7.31204 47.6982C7.12402 47.3468 6.9518 46.9846 6.76202 46.6333C6.73039 46.5756 6.63901 46.5522 6.57575 46.5125C6.57575 46.5774 6.54588 46.6675 6.57575 46.7017C6.80946 46.9684 6.80595 47.2261 6.59508 47.5054C6.56169 47.5504 6.57751 47.6964 6.61968 47.7288C6.95708 47.9955 7.30677 48.246 7.65471 48.4982C7.6758 48.5144 7.72324 48.4946 7.78299 48.4892H7.78475ZM41.3205 35.8705C41.3205 35.8705 41.331 35.8705 41.338 35.8705C41.338 35.7155 41.3415 35.5588 41.338 35.4038C41.3292 35.1299 41.1887 35.0038 40.9198 34.993C40.7704 34.9876 40.6773 34.9822 40.7493 35.175C40.8407 35.4164 40.9198 35.6633 41.0164 35.9029C41.0903 36.0867 41.1834 36.2615 41.2677 36.4399C41.2853 36.2507 41.3046 36.0615 41.3222 35.8723L41.3205 35.8705ZM5.58465 24.9347C5.57586 24.9347 5.56708 24.9347 5.55829 24.9347C5.56708 25.0032 5.57762 25.0699 5.58641 25.1384C5.60047 25.1095 5.61804 25.0807 5.62858 25.0483C5.79201 24.614 5.96422 24.1833 6.11183 23.7455C6.17509 23.5563 6.01518 23.522 5.87811 23.486C5.70414 23.441 5.67251 23.5563 5.66373 23.6878C5.63561 24.1041 5.61101 24.5185 5.58465 24.9347ZM4.85187 36.4489C4.91689 36.912 4.96785 37.2904 5.02408 37.6688C5.03111 37.7174 5.06098 37.7607 5.07856 37.8075C5.08734 37.7751 5.09964 37.7427 5.10492 37.7084C5.17696 37.3192 5.25428 36.9318 5.31403 36.539C5.33687 36.384 5.33336 36.1804 5.11019 36.2147C5.00299 36.2309 4.91689 36.3876 4.85187 36.4489ZM4.35808 31.7477C4.36159 31.7621 4.34226 31.6396 4.33875 31.6396C4.17356 31.6612 4.00838 31.6865 3.84671 31.7315C3.82914 31.7369 3.82738 31.8558 3.84144 31.9171C3.9293 32.2865 4.0242 32.6541 4.11733 33.0217C4.12963 33.0667 4.14369 33.1118 4.15775 33.1568C4.18411 33.1154 4.2298 33.0757 4.23331 33.0307C4.27549 32.6307 4.31063 32.2306 4.35632 31.7459L4.35808 31.7477ZM6.11183 25.8555C6.16455 25.7762 6.19442 25.7348 6.22254 25.6933C6.36663 25.4807 6.51424 25.2699 6.65483 25.0555C6.70403 24.9798 6.78838 24.8681 6.76553 24.8176C6.70403 24.6843 6.59332 24.5744 6.49667 24.459C6.4914 24.4536 6.40002 24.4969 6.38948 24.5311C6.27526 24.9095 6.16631 25.2915 6.06263 25.6735C6.05208 25.7096 6.08371 25.7564 6.11183 25.8555ZM38.3718 21.1453C38.1222 20.8228 37.9342 20.5543 37.7128 20.3201C37.6829 20.2894 37.4826 20.4228 37.3666 20.493C37.3525 20.5021 37.3596 20.6012 37.3859 20.621C37.6302 20.812 37.878 20.9976 38.1328 21.1742C38.1644 21.1958 38.2347 21.1634 38.3735 21.1453H38.3718ZM5.75159 44.4169C5.73226 44.4421 5.69184 44.4728 5.69711 44.4908C5.76389 44.7575 5.83242 45.0242 5.91677 45.2854C5.92732 45.3197 6.02748 45.3251 6.08723 45.3449C6.08723 45.298 6.10304 45.2458 6.08899 45.2025C6.00464 44.9575 5.91326 44.7142 5.82012 44.4728C5.81134 44.4494 5.77619 44.4349 5.75159 44.4169Z" fill="#24418E"/>
<path d="M21.4317 39.0562C21.4317 39.3193 21.4352 39.5842 21.4317 39.8473C21.4281 40.141 21.4422 40.4095 21.7937 40.5122C21.9782 40.5662 21.9079 40.6924 21.806 40.7861C21.5722 41.0005 21.3034 41.0726 20.9976 40.9735C20.72 40.8816 20.6532 40.6545 20.6514 40.3914C20.6479 39.9878 20.6339 39.5842 20.6497 39.1824C20.6602 38.9211 20.6286 38.6814 20.4212 38.5193C20.3404 38.4562 20.1963 38.4274 20.0979 38.4526C20.0381 38.467 19.9819 38.6148 19.9766 38.7067C19.9643 38.8995 20.0171 39.0977 19.9907 39.2851C19.9556 39.5391 19.9081 39.8058 19.7956 40.0311C19.6656 40.2905 19.6392 40.4815 19.8818 40.6725C20.0171 40.7788 20.1348 40.9086 20.2613 41.0275C20.5179 41.2708 20.7165 41.532 20.7358 41.9231C20.7498 42.215 20.8254 42.5141 20.9256 42.7916C21.0908 43.2493 20.9308 43.6925 20.9062 44.1394C20.8992 44.2565 20.7481 44.4511 20.6479 44.4601C20.4616 44.4782 20.2613 44.4025 20.0786 44.3322C20.0434 44.3196 20.0434 44.1448 20.068 44.0547C20.1348 43.8006 20.2244 43.5538 20.2982 43.3033C20.4775 42.6979 20.2367 42.2438 19.7939 41.869C19.7148 41.8023 19.6287 41.7447 19.5408 41.6888C19.4266 41.6185 19.3071 41.5555 19.1911 41.4888C19.1999 41.6113 19.2403 41.7429 19.2105 41.8546C19.1718 41.9933 19.1033 42.1519 18.9996 42.2402C18.6833 42.5051 18.3459 42.7483 18.0085 42.9862C17.8398 43.1033 17.7045 43.2096 17.7888 43.4511C17.8134 43.5231 17.8064 43.6583 17.7607 43.6979C17.6219 43.8151 17.455 43.8997 17.3003 43.9988C17.2617 43.8457 17.1896 43.6907 17.1914 43.5376C17.1966 43.0763 17.332 42.6781 17.7607 42.4348C17.8785 42.3681 17.9698 42.2546 18.0735 42.1627C18.2317 42.0204 18.2282 41.8906 18.1016 41.7104C17.5903 40.9843 16.8891 40.8023 16.0702 40.923C15.8541 40.9554 15.768 41.096 15.7961 41.2924C15.8664 41.7915 15.8769 42.3213 16.0597 42.7754C16.2829 43.3375 16.0158 43.7952 15.9349 44.2944C15.9051 44.4854 15.5483 44.5628 15.3041 44.4637C15.0633 44.3664 15.0457 44.1862 15.1863 44.0025C15.5677 43.5051 15.4464 43.0042 15.2426 42.4852C15.0897 42.0978 14.9509 41.7014 14.8349 41.3014C14.7435 40.9879 14.5537 40.8816 14.2585 40.914C14.2409 40.9158 14.2233 40.9122 14.2075 40.914C13.9721 40.9608 13.6241 40.7698 13.5257 41.0924C13.4291 41.4077 13.5117 41.7681 13.8051 41.9879C13.9879 42.1249 14.0318 42.2816 14.0072 42.4871C13.9844 42.6979 13.8438 42.7898 13.6891 42.6781C13.3904 42.46 13.0407 42.278 12.981 41.8294C12.9282 41.4293 12.8123 41.0383 12.7666 40.6383C12.7209 40.2419 12.7982 40.177 13.1795 40.1518C13.7044 40.1181 13.9662 39.8232 13.965 39.2671C13.965 38.7049 13.965 38.1427 13.958 37.5805C13.958 37.5246 13.9035 37.4688 13.8754 37.4129C13.8403 37.4471 13.7893 37.476 13.77 37.5174C13.6733 37.7228 13.589 37.9336 13.4923 38.1409C13.4414 38.249 13.3992 38.3877 13.3113 38.4472C13.1936 38.5265 13.0161 38.6039 12.8984 38.5661C12.7894 38.5319 12.6717 38.3553 12.6506 38.2274C12.5838 37.7967 12.5715 37.357 12.5118 36.9264C12.4766 36.6705 12.4011 36.4182 12.3202 36.1732C12.271 36.02 12.2341 35.8813 12.4274 35.8452C12.8773 35.7587 13.3289 35.6741 13.7823 35.6254C14.747 35.5227 15.6696 36.238 15.9789 37.2507C16.0544 37.4994 16.1563 37.748 16.2864 37.9715C16.4973 38.3337 16.8364 38.4346 17.2125 38.2724C17.4005 38.1913 17.5832 38.0922 17.7555 37.9805C18.1965 37.694 18.6622 37.6598 19.1314 37.8562C19.446 37.9877 19.7166 37.9967 20.0048 37.7985C20.1875 37.6724 20.3914 37.5679 20.5952 37.4814C21.0275 37.2994 21.4 37.5246 21.4352 38.0021C21.4598 38.3517 21.4404 38.7049 21.4404 39.0562H21.4317Z" fill="#24418E"/>
<path d="M30.0862 21.4878C30.1196 21.6031 30.1723 21.8193 30.2479 22.0247C30.2742 22.0932 30.3586 22.14 30.4183 22.1959C30.4605 22.1292 30.5097 22.0662 30.5413 21.9941C30.5624 21.949 30.5413 21.8698 30.5712 21.8427C30.652 21.7689 30.768 21.6481 30.8383 21.6679C30.942 21.695 31.0843 21.8229 31.0931 21.9184C31.1107 22.14 31.0509 22.3653 31.0316 22.5905C31.0053 22.8842 30.9596 23.1815 30.9754 23.4735C30.9824 23.6104 31.0861 23.7798 31.1968 23.8645C31.7134 24.2645 32.2652 24.6195 32.7731 25.0321C33.6043 25.7078 34.4126 26.4142 35.2297 27.1097C35.2824 27.1547 35.3334 27.2052 35.3686 27.2647C35.4002 27.3151 35.409 27.3818 35.4265 27.4412C35.3615 27.4557 35.2948 27.4881 35.2332 27.4791C34.9486 27.4376 34.6586 27.3205 34.381 27.3475C33.8924 27.3962 33.4057 27.5115 32.9277 27.634C32.1809 27.8268 31.4569 27.8034 30.7048 27.6196C30.0721 27.4647 29.4413 27.1854 28.7472 27.4575C28.3412 27.616 27.8826 27.6376 27.4503 27.7241C26.7966 27.8557 26.1728 27.753 25.5349 27.5674C25.0341 27.4214 24.4928 27.4214 23.9692 27.3511C23.8795 27.3385 23.7934 27.2935 23.7056 27.2629C23.746 27.1926 23.7706 27.1025 23.8286 27.052C24.3645 26.5871 24.8935 26.115 25.447 25.6754C26.2431 25.0411 27.0549 24.4267 27.865 23.8122C28.0337 23.6843 28.1216 23.5383 28.1075 23.3257C28.0847 23.0104 28.0636 22.6968 28.0425 22.3815C28.0337 22.2409 28.0126 22.1022 28.0161 21.9635C28.0214 21.7815 28.111 21.6661 28.3008 21.6607C28.473 21.6553 28.5925 21.7094 28.6277 21.913C28.6435 22.0103 28.7278 22.0968 28.7806 22.1887C28.8438 22.0914 28.937 22.0013 28.9633 21.895C29.0125 21.695 29.0371 21.486 29.0459 21.2805C29.0635 20.812 29.2181 20.6138 29.5871 20.621C29.9579 20.6282 30.102 20.8319 30.0844 21.331C30.0844 21.349 30.0844 21.367 30.0844 21.4878H30.0862ZM29.8947 23.196C29.7576 23.0951 29.6715 22.9833 29.5889 22.9851C29.5133 22.9869 29.443 23.1149 29.371 23.1888C29.4536 23.2518 29.5292 23.3473 29.6205 23.3671C29.6803 23.3798 29.7629 23.2824 29.8947 23.196Z" fill="#24418E"/>
</g>
<defs>
<clipPath id="clip0_89_150">
<rect width="46" height="64" fill="white"/>
</clipPath>
</defs>
</svg>
