<svg width="170" height="16" viewBox="0 0 170 16" fill="none" xmlns="http://www.w3.org/2000/svg">
<g clip-path="url(#clip0_89_237)">
<path d="M140.165 8.27533C140.165 9.58774 140.165 10.9002 140.165 12.2104C140.165 12.8974 139.924 13.5118 139.59 14.0975C139.047 15.0554 138.113 15.4297 137.128 15.7226C136.017 16.0529 134.873 16.0089 133.734 15.9758C133.416 15.967 133.104 15.8327 132.784 15.8019C132.378 15.7623 132.219 15.5553 132.23 15.1677C132.239 14.8022 132.221 14.4366 132.234 14.0711C132.252 13.5778 132.303 13.5294 132.819 13.547C133.164 13.558 133.506 13.6351 133.851 13.6263C134.688 13.6043 135.538 13.6307 136.355 13.4853C137.097 13.3532 137.74 12.5032 137.669 11.7127C137.658 11.5938 137.612 11.4771 137.583 11.3604C137.477 11.4198 137.351 11.4595 137.269 11.5431C136.614 12.2126 135.79 12.4922 134.882 12.5076C133.224 12.5341 131.821 11.7766 131.179 10.1272C130.554 8.52416 130.571 6.89245 131.358 5.32239C132.064 3.91089 133.743 3.10054 135.417 3.29212C136.404 3.40442 137.161 3.84703 137.78 4.58251C137.833 4.64417 137.908 4.68821 137.974 4.73885C138.003 4.64857 138.045 4.55829 138.058 4.4658C138.071 4.3601 138.053 4.25 138.058 4.1443C138.082 3.65765 138.137 3.5982 138.634 3.58058C138.979 3.56957 139.325 3.57398 139.67 3.57838C140.158 3.58279 140.169 3.58499 140.171 4.08485C140.178 5.48314 140.171 6.88144 140.171 8.27973C140.167 8.27973 140.162 8.27973 140.158 8.27973L140.165 8.27533ZM133.442 7.85253C133.471 7.85914 133.5 7.86575 133.528 7.87235C133.528 8.00007 133.522 8.12999 133.528 8.25771C133.579 9.26184 134.217 9.98851 135.2 10.1669C136.212 10.3496 137.024 9.91805 137.453 8.98658C137.764 8.30615 137.727 7.60811 137.548 6.91226C137.314 5.99622 136.591 5.61967 135.752 5.47433C135.01 5.34662 134.12 5.88612 133.78 6.63921C133.61 7.01796 133.55 7.44736 133.442 7.85474V7.85253Z" fill="#24418E"/>
<path d="M112.032 4.83792C112.032 5.95655 112.056 7.07519 112.025 8.19382C112.001 9.10987 111.712 9.95986 111.197 10.724C110.46 11.8228 109.397 12.4548 108.114 12.6265C107.116 12.7608 106.089 12.8027 105.093 12.5318C103.293 12.043 102.193 10.9111 101.761 9.07244C101.584 8.32374 101.569 7.59046 101.564 6.84177C101.557 5.0339 101.56 3.22823 101.56 1.42036C101.56 0.711302 101.633 0.636433 102.328 0.627625C102.803 0.621019 103.278 0.618817 103.753 0.629827C104.316 0.643039 104.378 0.700292 104.382 1.27723C104.391 2.58964 104.386 3.90205 104.386 5.21447C104.386 6.05344 104.369 6.89242 104.389 7.7314C104.411 8.63423 104.66 9.42036 105.557 9.86297C106.515 10.3364 107.472 10.2747 108.331 9.71763C109.013 9.27282 109.285 8.51312 109.289 7.70057C109.3 5.6791 109.293 3.65763 109.293 1.63396C109.293 1.48422 109.289 1.33228 109.293 1.18254C109.309 0.704696 109.349 0.645241 109.799 0.632029C110.36 0.614413 110.921 0.616615 111.482 0.632029C111.961 0.647443 112.03 0.717909 112.032 1.21997C112.041 2.42449 112.034 3.629 112.034 4.83352H112.027L112.032 4.83792Z" fill="#24418E"/>
<path d="M50.8086 6.5445C50.8086 8.24448 50.8086 9.94225 50.8086 11.6422C50.8086 12.4129 50.8064 12.4129 50.0091 12.4173C49.7287 12.4173 49.4482 12.4283 49.1677 12.4129C48.7062 12.3865 48.6532 12.3204 48.6708 11.8712C48.6708 11.8492 48.6775 11.8272 48.6775 11.8074C48.6598 11.5784 48.6399 11.3515 48.6223 11.1225C48.4633 11.2811 48.2998 11.4352 48.143 11.596C47.4827 12.261 46.7098 12.6419 45.7469 12.6992C44.5875 12.7675 43.5893 12.4482 42.6817 11.7435C42.0788 11.2745 41.7034 10.6601 41.4715 9.95986C41.0585 8.7025 41.074 7.43413 41.4361 6.16135C41.7829 4.94142 42.9842 3.45284 44.8084 3.30971C45.9611 3.21943 46.9925 3.35375 47.8228 4.23457C47.8714 4.28521 47.9642 4.29402 48.0348 4.32265C48.0503 4.23897 48.0812 4.15529 48.0812 4.07162C48.0856 3.1908 48.0812 2.30778 48.0856 1.42697C48.0878 0.669469 48.1276 0.632034 48.8961 0.62763C49.3488 0.625428 49.8015 0.618822 50.2543 0.632034C50.7688 0.645247 50.8064 0.678277 50.8086 1.19135C50.8152 2.6535 50.8086 4.11566 50.8086 5.57781C50.8086 5.90151 50.8086 6.22301 50.8086 6.54671V6.5445ZM43.914 8.07712C43.8168 8.65846 44.0398 9.25081 44.4881 9.75287C45.3207 10.6865 46.9328 10.746 47.7389 9.59653C48.2513 8.86765 48.2314 8.06171 48.0989 7.24475C47.8847 5.92353 46.5795 5.19245 45.3295 5.6791C44.4219 6.03143 43.925 6.83737 43.9118 8.07932L43.914 8.07712Z" fill="#24418E"/>
<path d="M4.94614e-06 6.4299C4.94614e-06 4.69029 -0.00220345 2.95068 4.94614e-06 1.21107C4.94614e-06 0.528442 0.0110469 0.51523 0.677982 0.513028C2.05602 0.508624 3.43847 0.464583 4.8143 0.528442C6.20559 0.592301 7.47321 1.0261 8.40736 2.14694C9.0235 2.88462 9.16926 3.76984 9.17147 4.68148C9.17147 5.60634 9.08755 6.51578 8.4957 7.31072C7.83539 8.19814 6.97632 8.69139 5.90304 8.94463C5.02852 9.14942 4.16062 9.14061 3.28168 9.15602C2.80246 9.16483 2.75829 9.20667 2.75166 9.6713C2.74062 10.3583 2.75166 11.0454 2.74946 11.7324C2.74504 12.36 2.7097 12.4018 2.1046 12.4128C1.60992 12.4216 1.11304 12.4216 0.618355 12.4128C0.0419644 12.404 0.00442173 12.371 0.00221334 11.7786C4.94614e-06 9.995 4.94614e-06 8.21355 4.94614e-06 6.4299ZM2.75166 4.81801C2.75166 5.28925 2.75829 5.76268 2.74946 6.23392C2.74283 6.55762 2.87092 6.70516 3.20659 6.69415C3.65931 6.67873 4.11424 6.65451 4.56255 6.69855C5.29353 6.76901 6.18793 6.15024 6.3403 5.2386C6.53906 4.06271 5.95825 2.90004 4.52721 2.95509C4.14074 2.9705 3.75207 2.95068 3.36339 2.95729C2.78921 2.9661 2.7605 2.99693 2.75166 3.59368C2.74504 4.00105 2.75166 4.40843 2.75166 4.81801Z" fill="#24418E"/>
<path d="M162.469 3.57395C162.6 3.57395 162.728 3.57395 162.858 3.57395C163.847 3.56955 163.841 3.629 164.104 4.62212C164.541 6.27585 165.062 7.90536 165.548 9.54587C165.579 9.64937 165.612 9.75287 165.663 9.84535C165.7 9.91141 165.769 9.96206 165.826 10.0171C165.89 9.94444 165.994 9.88058 166.016 9.79911C166.241 8.90728 166.451 8.01105 166.67 7.11703C166.924 6.07767 167.191 5.04271 167.432 4.00115C167.502 3.69286 167.655 3.56734 167.966 3.57175C168.505 3.58056 169.046 3.56074 169.583 3.57615C169.978 3.58936 170.053 3.67745 169.967 4.04959C169.832 4.63313 169.658 5.20786 169.512 5.7892C169.371 6.34852 169.251 6.91444 169.106 7.47376C168.708 8.98215 168.306 10.4928 167.891 11.9967C167.688 12.7366 167.493 13.4853 167.217 14.201C166.875 15.0884 166.157 15.5266 165.243 15.782C164.388 16.0221 163.538 15.9736 162.681 15.9824C162.173 15.9868 162.061 15.8723 162.039 15.3901C162.021 14.9827 162.021 14.5731 162.039 14.1657C162.059 13.7341 162.198 13.5954 162.635 13.5778C163.152 13.558 163.671 13.5778 164.188 13.5624C164.762 13.5426 165.17 13.2233 165.329 12.6948C165.404 12.446 165.358 12.2654 165.047 12.2632C164.81 12.2632 164.572 12.2632 164.335 12.2566C163.788 12.2412 163.728 12.1971 163.567 11.6708C163.205 10.4839 162.854 9.29264 162.487 8.10794C162.092 6.83957 161.683 5.5734 161.281 4.30723C161.248 4.20373 161.217 4.10244 161.189 3.99894C161.116 3.72809 161.217 3.58056 161.502 3.57835C161.825 3.57395 162.149 3.57835 162.472 3.57835L162.469 3.57395Z" fill="#24418E"/>
<path d="M22.5852 8.75087C21.7018 8.75087 20.8185 8.74206 19.9351 8.75528C19.489 8.76188 19.4537 8.82794 19.5685 9.26615C19.7386 9.92016 20.326 10.4112 21.0062 10.4508C21.3065 10.4685 21.6091 10.4464 21.9094 10.4575C22.3092 10.4751 22.6625 10.3165 22.8745 10.0214C23.1859 9.58765 23.5746 9.51938 24.0516 9.55241C24.416 9.57664 24.7848 9.56122 25.1514 9.55902C25.5047 9.55902 25.6195 9.76821 25.54 10.0655C25.4694 10.3297 25.3612 10.5962 25.211 10.823C24.4668 11.946 23.431 12.5978 22.0662 12.6837C20.9311 12.7542 19.8313 12.6639 18.8464 12.0099C17.6163 11.1929 16.945 10.0413 16.8633 8.58572C16.8213 7.84584 16.8147 7.10815 17.0421 6.35946C17.6141 4.47232 19.1534 3.36689 20.9466 3.22817C22.6647 3.09604 24.0847 3.63334 25.0564 5.11311C25.6902 6.0798 25.8801 7.161 25.8028 8.30166C25.7785 8.68261 25.5533 8.75308 25.2375 8.75087C24.3541 8.74647 23.4708 8.75087 22.5874 8.75087H22.5852ZM21.3308 7.11256C21.7836 7.11256 22.2363 7.12137 22.6868 7.11036C23.1572 7.09714 23.2168 7.02007 23.0644 6.56425C22.7553 5.6438 21.7063 5.14834 20.6219 5.55352C20.0676 5.76051 19.69 6.15027 19.5575 6.74702C19.5023 6.99585 19.584 7.11256 19.8446 7.11036C20.3393 7.10595 20.8362 7.11036 21.3308 7.11036V7.11256Z" fill="#24418E"/>
<path d="M58.2486 8.75534C57.3432 8.75534 56.4377 8.74653 55.5345 8.75974C55.1193 8.76635 55.0597 8.88526 55.2143 9.28823C55.4947 10.0237 56.08 10.4245 56.886 10.4663C57.6236 10.5038 58.3082 10.4289 58.7897 9.77488C58.8382 9.70882 58.92 9.62074 58.9884 9.61854C59.6752 9.60092 60.3665 9.55468 61.0466 9.61413C61.3337 9.64056 61.2741 9.96205 61.1769 10.1999C60.6447 11.4815 59.7084 12.3336 58.3502 12.5891C57.1113 12.8225 55.8569 12.8181 54.7174 12.1223C52.9838 11.0631 52.3677 9.46219 52.5024 7.51559C52.5532 6.78451 52.721 6.07986 53.0898 5.42586C54.0637 3.70827 55.8768 2.95737 57.8158 3.27006C59.9888 3.62239 61.3779 5.2563 61.4419 7.45834C61.4486 7.67414 61.453 7.88773 61.4486 8.10353C61.4375 8.70029 61.4066 8.73992 60.8369 8.74653C59.9734 8.75534 59.1121 8.74873 58.2486 8.74873V8.75314V8.75534ZM56.9545 7.11042C57.4492 7.11262 57.9438 7.12363 58.4363 7.11042C58.8338 7.09941 58.9045 7.00472 58.7808 6.64579C58.5467 5.96756 57.9461 5.37301 56.9479 5.42366C56.144 5.46329 55.3976 5.99398 55.1944 6.69423C55.0994 7.02674 55.2231 7.11922 55.5323 7.11262C56.0049 7.10381 56.4775 7.11042 56.9501 7.11042H56.9545Z" fill="#24418E"/>
<path d="M160.219 9.32559C160.219 10.1425 160.228 10.9595 160.217 11.7743C160.208 12.3248 160.124 12.3974 159.57 12.4128C159.247 12.4217 158.923 12.4128 158.6 12.4349C158.236 12.4591 158.081 12.2961 158.09 11.946C158.092 11.8381 158.095 11.7302 158.077 11.6245C158.064 11.5452 158.02 11.4704 157.989 11.3933C157.911 11.4506 157.808 11.4902 157.761 11.5651C156.909 12.9523 154.148 13.0008 152.892 11.8271C151.412 10.4464 151.913 8.01098 153.81 7.31513C154.725 6.97822 155.657 6.954 156.604 6.9562C156.668 6.9562 156.736 6.96721 156.798 6.954C157.066 6.89454 157.439 7.11915 157.58 6.72279C157.677 6.44753 157.293 5.89482 156.944 5.7649C156.807 5.71205 156.65 5.68122 156.505 5.68563C155.665 5.70324 154.826 5.73407 153.987 5.7627C153.837 5.7671 153.687 5.78692 153.536 5.79353C153.192 5.80674 153.009 5.62617 152.993 5.29587C152.976 4.91051 152.978 4.52295 152.987 4.13539C152.998 3.66636 153.154 3.41753 153.618 3.41312C154.921 3.40211 156.222 3.22595 157.531 3.54084C158.375 3.74343 159.055 4.09576 159.59 4.74976C160.144 5.42799 160.173 6.25816 160.208 7.07071C160.241 7.8216 160.215 8.5747 160.215 9.32559H160.219ZM156.535 8.50864C156.535 8.50864 156.535 8.52405 156.535 8.53066C156.257 8.53066 155.975 8.50203 155.699 8.53726C155.235 8.59672 154.835 8.99529 154.782 9.39826C154.709 9.95758 154.93 10.3892 155.403 10.6116C156.352 11.0608 157.437 10.4795 157.596 9.43569C157.719 8.61874 157.626 8.51084 156.792 8.50644C156.706 8.50644 156.619 8.50644 156.533 8.50644L156.535 8.50864Z" fill="#24418E"/>
<path d="M96.2484 9.08786C96.2484 9.96867 96.2528 10.8495 96.2484 11.7325C96.244 12.3821 96.2175 12.4041 95.5395 12.4173C95.237 12.4217 94.9366 12.4261 94.6341 12.4239C94.1836 12.4239 94.0997 12.3491 94.0665 11.9241C94.0577 11.8184 94.0754 11.7083 94.071 11.6026C94.0687 11.5431 94.0422 11.4837 94.0268 11.4242C93.9561 11.4528 93.8634 11.4639 93.8148 11.5145C92.6399 12.7697 90.8931 13.0405 89.4245 12.1949C88.3865 11.5982 88.0376 10.6491 88.1127 9.53046C88.1922 8.381 88.8437 7.67415 89.9368 7.29099C90.8136 6.98491 91.7036 6.94968 92.609 6.95408C92.7172 6.95408 92.8254 6.96289 92.9314 6.95408C93.1743 6.93206 93.4769 7.04437 93.605 6.72067C93.6911 6.50266 93.4349 5.96757 93.1611 5.85967C92.9071 5.76058 92.6222 5.68571 92.3506 5.68791C91.5335 5.69452 90.7164 5.74516 89.8993 5.77819C89.769 5.7826 89.6409 5.7892 89.5106 5.79141C89.2522 5.79581 89.0954 5.6769 89.0932 5.41266C89.0866 4.9194 89.0866 4.42394 89.0954 3.93069C89.1021 3.59157 89.3185 3.39119 89.6277 3.39999C90.9328 3.43302 92.2314 3.23044 93.5454 3.53872C94.4861 3.75893 95.2326 4.14428 95.7515 4.93922C96.0475 5.39284 96.244 5.8905 96.2418 6.44982C96.2352 7.33063 96.2418 8.21144 96.2418 9.09446H96.2484V9.08786ZM92.2137 10.7196C92.6929 10.779 93.1655 10.5632 93.404 10.0568C93.5829 9.6802 93.6271 9.23539 93.7044 8.817C93.7463 8.5902 93.5741 8.51753 93.3819 8.51753C92.8453 8.51753 92.302 8.4823 91.7698 8.54175C91.0388 8.62323 90.67 9.2398 90.8666 9.94885C91.0189 10.495 91.3789 10.7174 92.2115 10.7196H92.2137Z" fill="#24418E"/>
<path d="M68.7915 9.4445C68.7915 8.6914 68.8048 7.9383 68.7871 7.18741C68.7672 6.24934 68.2438 5.69883 67.3848 5.67681C66.4639 5.65479 65.8235 6.22952 65.8058 7.17199C65.7793 8.59011 65.7947 10.0104 65.7925 11.4285C65.7925 11.6003 65.7925 11.772 65.7859 11.9438C65.7793 12.2213 65.6512 12.3952 65.3597 12.404C64.7126 12.4216 64.0656 12.4525 63.4207 12.4349C63.0917 12.4261 63.116 12.131 63.1182 11.8954C63.1292 10.8428 63.1601 9.79022 63.1579 8.73764C63.1579 7.23585 63.1358 5.73186 63.1182 4.23007C63.1115 3.68837 63.1999 3.58488 63.7299 3.57387C64.0744 3.56726 64.4211 3.58267 64.7656 3.57387C65.119 3.56506 65.2868 3.72361 65.2736 4.07593C65.2714 4.13979 65.2647 4.20585 65.2736 4.26971C65.2979 4.42605 65.3288 4.5824 65.3575 4.73874C65.4569 4.63084 65.5717 4.53395 65.6534 4.41504C66.1945 3.61571 66.9939 3.29641 67.9104 3.23916C69.8361 3.12025 71.0949 4.11557 71.4041 6.05997C71.7 7.92289 71.5609 9.79022 71.594 11.6575C71.605 12.2873 71.4681 12.3996 70.8233 12.4128C70.3264 12.4239 69.8317 12.4239 69.3348 12.4239C68.8997 12.4239 68.8092 12.3534 68.8004 11.8954C68.7827 11.0784 68.7959 10.2615 68.7959 9.4445H68.7893H68.7915Z" fill="#24418E"/>
<path d="M129.101 8.00227C129.101 9.24862 129.105 10.495 129.098 11.7413C129.094 12.3513 129.034 12.4041 128.436 12.4152C128.155 12.4196 127.875 12.4196 127.594 12.4152C126.941 12.4019 126.89 12.3513 126.819 11.6775C126.808 11.5784 126.768 11.4837 126.74 11.3868C126.662 11.4529 126.559 11.5057 126.51 11.5872C125.625 13.1176 122.259 13.1793 121.274 11.2481C121.047 10.8033 120.863 10.2814 120.848 9.79032C120.793 7.923 120.808 6.05127 120.808 4.18174C120.808 3.63343 120.857 3.596 121.398 3.58058C121.786 3.56957 122.173 3.57618 122.561 3.57618C123.143 3.57618 123.434 3.85657 123.434 4.41735C123.434 5.70775 123.429 6.99594 123.436 8.28633C123.436 8.54177 123.451 8.80381 123.498 9.05484C123.663 9.93786 124.099 10.2814 124.969 10.2417C125.742 10.2065 126.287 9.69564 126.375 8.90951C126.397 8.71793 126.386 8.52415 126.386 8.33037C126.386 6.9541 126.38 5.58003 126.386 4.20376C126.389 3.62903 126.439 3.58719 127.02 3.57838C127.429 3.57177 127.84 3.57397 128.248 3.57618C129.076 3.57618 129.092 3.59159 129.094 4.39313C129.098 5.59765 129.094 6.79996 129.094 8.00447L129.101 8.00227Z" fill="#24418E"/>
<path d="M150.502 8.00665C150.502 9.23098 150.507 10.4575 150.502 11.6819C150.498 12.3513 150.429 12.4129 149.756 12.4173C149.433 12.4195 149.109 12.4129 148.786 12.4173C148.475 12.4173 148.294 12.294 148.305 11.9593C148.307 11.8954 148.309 11.8294 148.303 11.7655C148.283 11.5629 148.261 11.3582 148.239 11.1556C148.117 11.3251 148.018 11.5167 147.87 11.6598C147.625 11.8954 147.371 12.1311 147.086 12.3138C145.717 13.2013 143.484 12.664 142.709 11.2657C142.313 10.5522 142.229 9.75287 142.214 8.96234C142.185 7.37247 142.201 5.78259 142.207 4.19272C142.21 3.64001 142.265 3.58937 142.788 3.57836C143.283 3.56955 143.78 3.56514 144.277 3.57836C144.769 3.58937 144.827 3.64442 144.831 4.15089C144.84 5.54698 144.833 6.94527 144.833 8.34136C144.833 8.53514 144.816 8.73112 144.846 8.9205C144.933 9.47981 145.16 10.0017 145.734 10.1514C146.289 10.2968 146.907 10.3496 147.373 9.86077C147.728 9.48862 147.868 9.02179 147.87 8.51312C147.872 7.13685 147.87 5.76278 147.87 4.3865C147.87 4.21474 147.876 4.04299 147.876 3.87123C147.876 3.6224 148.002 3.54533 148.247 3.55413C148.786 3.57395 149.325 3.56294 149.864 3.57395C150.443 3.58496 150.5 3.6312 150.504 4.20153C150.513 5.46991 150.507 6.73828 150.507 8.00445L150.502 8.00665Z" fill="#24418E"/>
<path d="M30.7652 12.6749C29.7648 12.7432 28.8042 12.5406 27.9429 11.9923C27.2362 11.5409 26.8144 10.8935 26.7813 10.0281C26.7702 9.73739 26.8806 9.57664 27.1854 9.57664C27.6381 9.57664 28.0997 9.52599 28.5391 9.59866C28.8019 9.6427 29.1001 9.82767 29.2657 10.0391C29.5992 10.4641 29.9967 10.6887 30.5245 10.6865C30.9706 10.6865 31.4211 10.7569 31.8473 10.5081C32.1455 10.3341 32.4259 10.1734 32.353 9.78583C32.2868 9.4313 32.0107 9.23973 31.6751 9.18247C31.0413 9.07457 30.403 9.00191 29.767 8.90281C28.8042 8.75528 27.9407 8.43598 27.3621 7.57719C26.6201 6.47397 26.8056 4.2411 28.7821 3.57168C29.8421 3.21275 30.9021 3.17091 31.9577 3.38011C33.1746 3.62233 34.1485 4.2389 34.5173 5.5359C34.6807 6.10843 34.5703 6.28679 33.9696 6.30441C33.667 6.31322 33.3667 6.30221 33.0641 6.30661C32.6158 6.31322 32.2537 6.31322 31.9401 5.81776C31.5072 5.13293 30.4958 5.01842 29.8023 5.46764C29.6191 5.58655 29.4623 5.87061 29.4446 6.09081C29.4203 6.37928 29.6323 6.6171 29.9415 6.67876C30.3213 6.75363 30.7056 6.80648 31.0876 6.85492C32.1631 6.99365 33.2143 7.16981 34.0535 7.95814C35.2659 9.0988 35.0296 11.1203 33.614 11.9945C32.7417 12.534 31.7899 12.7344 30.7586 12.6705L30.7652 12.6749Z" fill="#24418E"/>
<path d="M80.4452 6.9694C80.337 6.9694 80.2266 6.95619 80.1228 6.9694C79.5597 7.05088 79.16 6.92316 78.9391 6.3154C78.7072 5.67681 78.1066 5.54689 77.4992 5.54909C76.8367 5.5535 76.3398 5.886 76.0572 6.47395C75.5713 7.48468 75.5934 8.52184 76.0461 9.53258C76.3398 10.191 76.9516 10.4178 77.634 10.4288C78.323 10.4398 78.9215 10.0434 79.1268 9.41367C79.2505 9.03271 79.478 8.9116 79.8424 8.91601C80.3392 8.92481 80.8339 8.9094 81.3308 8.92041C81.8078 8.93142 81.958 9.09877 81.8432 9.56561C81.746 9.95537 81.6267 10.3605 81.4169 10.6975C80.655 11.924 79.5575 12.6264 78.0801 12.6881C76.9648 12.7365 75.8805 12.6727 74.9265 12.0011C73.9504 11.314 73.3232 10.4068 73.1509 9.20888C73.0913 8.78609 72.9345 8.36109 72.961 7.94711C73.056 6.52459 73.4336 5.21218 74.5797 4.22787C75.7193 3.25016 77.0465 3.09382 78.4599 3.28319C79.8203 3.46596 80.8008 4.20144 81.4236 5.40376C81.598 5.74067 81.7084 6.11501 81.8145 6.48275C81.894 6.7514 81.8012 6.95619 81.4766 6.9606C81.1321 6.965 80.7875 6.9606 80.4408 6.9606C80.4408 6.9606 80.4408 6.9628 80.4408 6.965L80.4452 6.9694Z" fill="#24418E"/>
<path d="M10.6401 8.00886C10.6401 6.74049 10.6357 5.46992 10.6401 4.20154C10.6423 3.62461 10.6843 3.59158 11.2761 3.57837C11.5787 3.57176 11.8812 3.56956 12.1815 3.57616C12.7734 3.58717 12.8087 3.62241 12.8264 4.19714C12.8352 4.4768 12.833 4.75646 12.8463 5.03611C12.8485 5.08676 12.9059 5.13521 12.939 5.18585C12.9854 5.15282 13.0428 5.1264 13.0737 5.08456C13.299 4.77407 13.4889 4.43055 13.7495 4.1531C14.2795 3.59158 14.9774 3.3978 15.7304 3.37358C16.0462 3.36257 16.2119 3.52332 16.2119 3.84261C16.2119 4.31605 16.203 4.78949 16.2141 5.26292C16.2229 5.59323 16.0484 5.73416 15.7525 5.76279C15.5383 5.78261 15.3219 5.7826 15.1055 5.79802C14.0918 5.87069 13.3851 6.58194 13.3675 7.59928C13.3454 8.9117 13.3586 10.2241 13.3586 11.5343C13.3586 11.7061 13.3586 11.8778 13.352 12.0496C13.3432 12.2808 13.2173 12.4063 12.9832 12.4085C12.3361 12.4129 11.6891 12.4173 11.042 12.4085C10.6909 12.4041 10.6357 12.1663 10.6379 11.8778C10.6423 10.953 10.6379 10.0281 10.6379 9.10328C10.6379 8.73774 10.6379 8.3722 10.6379 8.00666L10.6401 8.00886Z" fill="#24418E"/>
<path d="M114.207 8.00001C114.207 6.75365 114.203 5.5073 114.207 4.26315C114.209 3.61795 114.251 3.58492 114.914 3.57611C115.236 3.57171 115.561 3.5651 115.883 3.56951C116.299 3.57611 116.409 3.70163 116.387 4.12222C116.369 4.46353 116.343 4.80485 116.332 5.14837C116.332 5.19021 116.398 5.23865 116.442 5.27168C116.451 5.27829 116.515 5.23204 116.533 5.19901C116.594 5.08671 116.641 4.9656 116.707 4.8555C117.241 3.97028 118.025 3.46161 119.059 3.37573C119.624 3.32728 119.761 3.46161 119.781 4.00991C119.794 4.39527 119.777 4.78283 119.788 5.17039C119.799 5.54694 119.6 5.7209 119.251 5.76053C119.101 5.77815 118.951 5.79136 118.801 5.78696C117.663 5.76494 116.906 6.56868 116.87 7.74897C116.833 8.92926 116.859 10.1118 116.857 11.292C116.857 11.4858 116.862 11.6796 116.853 11.8712C116.833 12.349 116.798 12.3997 116.34 12.4107C115.802 12.4261 115.263 12.4261 114.724 12.4107C114.276 12.3975 114.216 12.3358 114.214 11.8646C114.205 10.5764 114.212 9.28599 114.212 7.9978H114.209L114.207 8.00001Z" fill="#24418E"/>
<path d="M39.5082 7.99566C39.5082 9.19797 39.5082 10.4025 39.5082 11.6048C39.5082 12.1436 39.2277 12.4129 38.6668 12.4129C38.2361 12.4129 37.8033 12.4218 37.3726 12.4107C36.8272 12.3975 36.7874 12.3623 36.7852 11.8118C36.7786 10.1999 36.7852 8.58801 36.7852 6.97832C36.7852 6.76252 36.7852 6.54892 36.7852 6.33312C36.783 5.62407 36.7852 5.61306 36.0807 5.53378C35.7164 5.49194 35.5331 5.32018 35.5331 4.95465C35.5331 4.63315 35.5286 4.30945 35.5419 3.98795C35.5529 3.73692 35.6987 3.58718 35.9549 3.58498C37.0105 3.58058 38.0661 3.57837 39.1239 3.58498C39.4905 3.58498 39.5082 3.85583 39.5082 4.12888C39.5082 5.28936 39.5082 6.44983 39.5082 7.6103C39.5082 7.74022 39.5082 7.86794 39.5082 7.99786V7.99566Z" fill="#24418E"/>
<path d="M86.5182 7.99787C86.5182 9.2222 86.5182 10.4487 86.5182 11.6731C86.5182 12.3953 86.5028 12.4086 85.8071 12.4152C85.3765 12.4196 84.9436 12.4196 84.513 12.4152C83.8218 12.4063 83.8019 12.3887 83.8019 11.6709C83.7997 9.92906 83.8019 8.18945 83.8019 6.44764C83.8019 6.31772 83.7953 6.19 83.8019 6.06008C83.824 5.72097 83.7025 5.55801 83.3315 5.52939C82.6314 5.47654 82.6292 5.45452 82.627 4.75427C82.6248 3.4925 82.5056 3.57178 83.8107 3.57398C84.4997 3.57398 85.191 3.56957 85.88 3.57398C86.4741 3.57838 86.5094 3.60921 86.5138 4.19055C86.5204 5.45892 86.516 6.7273 86.5138 7.99567L86.5182 7.99787Z" fill="#24418E"/>
<path d="M37.8055 2.74155C36.8316 2.73714 36.3855 2.31435 36.3833 1.3961C36.3789 0.517492 36.9001 1.28658e-05 37.7901 -0.00218917C38.817 -0.00439121 39.2896 0.442622 39.283 1.41152C39.2763 2.38702 38.8766 2.74375 37.8077 2.73935L37.8055 2.74155Z" fill="#24418E"/>
<path d="M84.8333 2.74154C83.8727 2.74154 83.4089 2.30773 83.4023 1.41151C83.3957 0.521883 83.9345 0 84.8554 0C85.8183 0 86.2975 0.469034 86.2909 1.39829C86.2842 2.36058 85.8691 2.74154 84.8311 2.74154H84.8333Z" fill="#24418E"/>
</g>
<defs>
<clipPath id="clip0_89_237">
<rect width="170" height="16" fill="white"/>
</clipPath>
</defs>
</svg>
