<?xml version="1.0" encoding="UTF-8"?>
<svg xmlns="http://www.w3.org/2000/svg" xmlns:xlink="http://www.w3.org/1999/xlink" viewBox="0 0 373.41 329.61">
  <defs>
    <style>
      .cls-1 {
        fill: #7c7474;
        font-family: SchibstedGrotesk-Bold, 'Schibsted Grotesk';
        font-size: 36.88px;
        font-variation-settings: 'wght' 700;
        font-weight: 700;
        opacity: .5;
      }

      .cls-2 {
        letter-spacing: -.07em;
      }

      .cls-3 {
        fill: url(#linear-gradient);
        filter: url(#drop-shadow-1);
      }

      .cls-3, .cls-4, .cls-5, .cls-6, .cls-7, .cls-8 {
        stroke-width: 0px;
      }

      .cls-9 {
        letter-spacing: -.05em;
      }

      .cls-10 {
        filter: url(#drop-shadow-2);
      }

      .cls-11 {
        letter-spacing: -.05em;
      }

      .cls-4 {
        fill: url(#radial-gradient-2);
      }

      .cls-12 {
        letter-spacing: -.06em;
      }

      .cls-13 {
        letter-spacing: -.05em;
      }

      .cls-5 {
        fill: url(#radial-gradient);
        mix-blend-mode: multiply;
        opacity: .2;
      }

      .cls-6 {
        fill: url(#linear-gradient-2);
      }

      .cls-14 {
        letter-spacing: -.13em;
      }

      .cls-15 {
        isolation: isolate;
      }

      .cls-16 {
        letter-spacing: -.06em;
      }

      .cls-7 {
        fill: #e6af4b;
      }

      .cls-8 {
        fill: #e6bd55;
      }
    </style>
    <radialGradient id="radial-gradient" cx="3037.12" cy="289.32" fx="3037.12" fy="289.32" r="77.66" gradientTransform="translate(7401.99 282.43) rotate(-180) scale(2.38 -.13)" gradientUnits="userSpaceOnUse">
      <stop offset="0" stop-color="#000100"/>
      <stop offset="1" stop-color="#000100" stop-opacity="0"/>
    </radialGradient>
    <linearGradient id="linear-gradient" x1="5303.38" y1="963.18" x2="5303.38" y2="758.41" gradientTransform="translate(1046.38 5488.53) rotate(-90) scale(1 -1)" gradientUnits="userSpaceOnUse">
      <stop offset="0" stop-color="#ccc"/>
      <stop offset=".18" stop-color="#ddd"/>
      <stop offset=".44" stop-color="#f0f0f0"/>
      <stop offset=".71" stop-color="#fbfbfb"/>
      <stop offset="1" stop-color="#fff"/>
    </linearGradient>
    <filter id="drop-shadow-1" filterUnits="userSpaceOnUse">
      <feOffset dx="0" dy="-3.05"/>
      <feGaussianBlur result="blur" stdDeviation="1.22"/>
      <feFlood flood-color="#000" flood-opacity=".1"/>
      <feComposite in2="blur" operator="in"/>
      <feComposite in="SourceGraphic"/>
    </filter>
    <filter id="drop-shadow-2" filterUnits="userSpaceOnUse">
      <feOffset dx="0" dy="-3.05"/>
      <feGaussianBlur result="blur-2" stdDeviation="1.22"/>
      <feFlood flood-color="#000" flood-opacity=".1"/>
      <feComposite in2="blur-2" operator="in"/>
      <feComposite in="SourceGraphic"/>
    </filter>
    <radialGradient id="radial-gradient-2" cx="186.47" cy="214.99" fx="186.47" fy="214.99" r="135.12" gradientUnits="userSpaceOnUse">
      <stop offset=".41" stop-color="#e6bd55"/>
      <stop offset=".75" stop-color="#e6ba53"/>
      <stop offset=".95" stop-color="#e6b24d"/>
      <stop offset="1" stop-color="#e6af4b"/>
    </radialGradient>
    <linearGradient id="linear-gradient-2" x1="186.47" y1="309" x2="186.47" y2="205.95" gradientUnits="userSpaceOnUse">
      <stop offset="0" stop-color="#e6af4b"/>
      <stop offset=".03" stop-color="#e6b04b"/>
      <stop offset=".34" stop-color="#e6b952"/>
      <stop offset=".74" stop-color="#e6bd55"/>
    </linearGradient>
  </defs>
  <g class="cls-15">
    <g id="Layer_2" data-name="Layer 2">
      <g id="Layer_1-2" data-name="Layer 1">
        <path class="cls-5" d="M0,319.99c0,5.31,83.59,9.62,186.71,9.62s186.71-4.31,186.71-9.62-83.59-9.63-186.71-9.63S0,314.67,0,319.99Z"/>
        <path class="cls-7" d="M30.21,103.49L175.55,4.53c6.03-6.03,15.82-6.03,21.85,0l145.34,98.96c2.2,2.2,3.59,4.89,4.19,7.73h.47v207.55H26.02V111.22c.6-2.83,1.99-5.53,4.19-7.73Z"/>
        <path class="cls-8" d="M47.84,111.22c.52-2.45,1.72-4.78,3.62-6.68L177.03,19.03c5.21-5.21,13.67-5.21,18.88,0l125.57,85.5c1.9,1.9,3.1,4.23,3.62,6.68H47.84Z"/>
        <rect class="cls-3" x="83.96" y="58.47" width="205.03" height="253.85" transform="translate(-27.38 338.39) rotate(-80.41)"/>
        <text class="cls-1" transform="translate(87.57 126.03) rotate(9.31)"><tspan class="cls-14" x="0" y="0">V</tspan><tspan class="cls-12" x="21.65" y="0">o</tspan><tspan class="cls-2" x="41.91" y="0">t</tspan><tspan class="cls-11" x="53.37" y="0">o an</tspan><tspan class="cls-16" x="120.27" y="0">u</tspan><tspan class="cls-13" x="140.86" y="0">l</tspan><tspan class="cls-9" x="150" y="0">a</tspan><tspan class="cls-16" x="170.01" y="0">d</tspan><tspan class="cls-11" x="190.98" y="0">o</tspan></text>
        <g class="cls-10">
          <polygon class="cls-4" points="26.02 111.22 186.47 217.73 346.93 111.22 346.93 318.76 26.02 318.76 26.02 111.22"/>
          <path class="cls-6" d="M26.02,318.76c.6-2.83,1.99-5.53,4.19-7.73l145.34-98.96c6.03-6.03,15.82-6.03,21.85,0l145.34,98.96c2.2,2.2,3.59,4.89,4.19,7.73H26.02Z"/>
        </g>
      </g>
    </g>
  </g>
</svg>